<?xml version="1.0" encoding="UTF-8" standalone="no"?>
<!-- Created with Inkscape (http://www.inkscape.org/) -->

<svg
   version="1.1"
   id="svg1"
   width="880"
   height="880"
   viewBox="0 0 880 880"
   sodipodi:docname="billboard.svg"
   inkscape:version="1.3.2 (091e20e, 2023-11-25, custom)"
   xmlns:inkscape="http://www.inkscape.org/namespaces/inkscape"
   xmlns:sodipodi="http://sodipodi.sourceforge.net/DTD/sodipodi-0.dtd"
   xmlns="http://www.w3.org/2000/svg"
   xmlns:svg="http://www.w3.org/2000/svg">
  <defs
     id="defs1">
    <clipPath
       clipPathUnits="userSpaceOnUse"
       id="clipPath4">
      <path
         d="M 0,660 H 660 V 0 H 0 Z"
         transform="translate(-194.4219,-351.73101)"
         id="path4" />
    </clipPath>
    <clipPath
       clipPathUnits="userSpaceOnUse"
       id="clipPath6">
      <path
         d="M 0,660 H 660 V 0 H 0 Z"
         transform="translate(-271.17091,-453.22511)"
         id="path6" />
    </clipPath>
    <clipPath
       clipPathUnits="userSpaceOnUse"
       id="clipPath8">
      <path
         d="M 0,660 H 660 V 0 H 0 Z"
         transform="translate(-583.97362,-570.58541)"
         id="path8" />
    </clipPath>
    <clipPath
       clipPathUnits="userSpaceOnUse"
       id="clipPath10">
      <path
         d="M 0,660 H 660 V 0 H 0 Z"
         transform="translate(-192.9688,-491.39401)"
         id="path10" />
    </clipPath>
    <clipPath
       clipPathUnits="userSpaceOnUse"
       id="clipPath12">
      <path
         d="M 0,660 H 660 V 0 H 0 Z"
         transform="translate(-80.326705,-521.91551)"
         id="path12" />
    </clipPath>
    <clipPath
       clipPathUnits="userSpaceOnUse"
       id="clipPath14">
      <path
         d="M 0,660 H 660 V 0 H 0 Z"
         transform="translate(-659.99801,-311.68851)"
         id="path14" />
    </clipPath>
    <clipPath
       clipPathUnits="userSpaceOnUse"
       id="clipPath16">
      <path
         d="M 0,660 H 660 V 0 H 0 Z"
         id="path16" />
    </clipPath>
    <clipPath
       clipPathUnits="userSpaceOnUse"
       id="clipPath18">
      <path
         d="M 0,660 H 660 V 0 H 0 Z"
         transform="translate(-483.70021,-153.9609)"
         id="path18" />
    </clipPath>
    <clipPath
       clipPathUnits="userSpaceOnUse"
       id="clipPath20">
      <path
         d="M 0,660 H 660 V 0 H 0 Z"
         transform="translate(-476.96781,-345.58251)"
         id="path20" />
    </clipPath>
    <clipPath
       clipPathUnits="userSpaceOnUse"
       id="clipPath22">
      <path
         d="M 0,660 H 660 V 0 H 0 Z"
         transform="translate(-504.90041,-292.2793)"
         id="path22" />
    </clipPath>
    <clipPath
       clipPathUnits="userSpaceOnUse"
       id="clipPath24">
      <path
         d="M 0,660 H 660 V 0 H 0 Z"
         id="path24" />
    </clipPath>
    <clipPath
       clipPathUnits="userSpaceOnUse"
       id="clipPath26">
      <path
         d="M 0,660 H 660 V 0 H 0 Z"
         transform="translate(-322.65531,-432.12601)"
         id="path26" />
    </clipPath>
    <clipPath
       clipPathUnits="userSpaceOnUse"
       id="clipPath28">
      <path
         d="M 0,660 H 660 V 0 H 0 Z"
         transform="translate(-325.74661,-429.01171)"
         id="path28" />
    </clipPath>
    <clipPath
       clipPathUnits="userSpaceOnUse"
       id="clipPath30">
      <path
         d="M 0,660 H 660 V 0 H 0 Z"
         transform="translate(-328.49371,-284.42481)"
         id="path30" />
    </clipPath>
    <clipPath
       clipPathUnits="userSpaceOnUse"
       id="clipPath32">
      <path
         d="M 0,660 H 660 V 0 H 0 Z"
         transform="translate(-587.14261,-442.55181)"
         id="path32" />
    </clipPath>
    <clipPath
       clipPathUnits="userSpaceOnUse"
       id="clipPath34">
      <path
         d="M 0,660 H 660 V 0 H 0 Z"
         transform="translate(-466.36911,-435.26761)"
         id="path34" />
    </clipPath>
    <clipPath
       clipPathUnits="userSpaceOnUse"
       id="clipPath36">
      <path
         d="M 0,660 H 660 V 0 H 0 Z"
         transform="translate(-624.86912,-441.09861)"
         id="path36" />
    </clipPath>
    <clipPath
       clipPathUnits="userSpaceOnUse"
       id="clipPath38">
      <path
         d="M 0,660 H 660 V 0 H 0 Z"
         transform="translate(-321.57321,-318.28131)"
         id="path38" />
    </clipPath>
    <clipPath
       clipPathUnits="userSpaceOnUse"
       id="clipPath40">
      <path
         d="M 0,660 H 660 V 0 H 0 Z"
         transform="translate(-624.86912,-441.09861)"
         id="path40" />
    </clipPath>
    <clipPath
       clipPathUnits="userSpaceOnUse"
       id="clipPath42">
      <path
         d="M 0,660 H 660 V 0 H 0 Z"
         transform="translate(-582.36721,-139.0693)"
         id="path42" />
    </clipPath>
    <clipPath
       clipPathUnits="userSpaceOnUse"
       id="clipPath44">
      <path
         d="M 0,660 H 660 V 0 H 0 Z"
         transform="translate(-64.733902,-543.56881)"
         id="path44" />
    </clipPath>
    <clipPath
       clipPathUnits="userSpaceOnUse"
       id="clipPath46">
      <path
         d="M 0,660 H 660 V 0 H 0 Z"
         transform="translate(-10.3477,-216.80181)"
         id="path46" />
    </clipPath>
    <clipPath
       clipPathUnits="userSpaceOnUse"
       id="clipPath48">
      <path
         d="M 0,660 H 660 V 0 H 0 Z"
         transform="translate(-8.2383002,-219.001)"
         id="path48" />
    </clipPath>
    <clipPath
       clipPathUnits="userSpaceOnUse"
       id="clipPath50">
      <path
         d="M 0,660 H 660 V 0 H 0 Z"
         transform="translate(-53.628401,-207.1729)"
         id="path50" />
    </clipPath>
    <clipPath
       clipPathUnits="userSpaceOnUse"
       id="clipPath52">
      <path
         d="M 0,660 H 660 V 0 H 0 Z"
         transform="translate(-51.264202,-209.63571)"
         id="path52" />
    </clipPath>
    <clipPath
       clipPathUnits="userSpaceOnUse"
       id="clipPath54">
      <path
         d="M 0,660 H 660 V 0 H 0 Z"
         transform="translate(-25.1362,-182.5566)"
         id="path54" />
    </clipPath>
    <clipPath
       clipPathUnits="userSpaceOnUse"
       id="clipPath56">
      <path
         d="M 0,660 H 660 V 0 H 0 Z"
         transform="translate(-22.772001,-185.0205)"
         id="path56" />
    </clipPath>
    <clipPath
       clipPathUnits="userSpaceOnUse"
       id="clipPath58">
      <path
         d="M 0,660 H 660 V 0 H 0 Z"
         transform="translate(-83.8735,-173.1748)"
         id="path58" />
    </clipPath>
    <clipPath
       clipPathUnits="userSpaceOnUse"
       id="clipPath60">
      <path
         d="M 0,660 H 660 V 0 H 0 Z"
         transform="translate(-81.509305,-175.6387)"
         id="path60" />
    </clipPath>
    <clipPath
       clipPathUnits="userSpaceOnUse"
       id="clipPath62">
      <path
         d="M 0,660 H 660 V 0 H 0 Z"
         transform="translate(-194.3809,-187.1514)"
         id="path62" />
    </clipPath>
    <clipPath
       clipPathUnits="userSpaceOnUse"
       id="clipPath64">
      <path
         d="M 0,660 H 660 V 0 H 0 Z"
         transform="translate(-192.01611,-189.61431)"
         id="path64" />
    </clipPath>
    <clipPath
       clipPathUnits="userSpaceOnUse"
       id="clipPath66">
      <path
         d="M 0,660 H 660 V 0 H 0 Z"
         transform="translate(-145.69431,-157.8564)"
         id="path66" />
    </clipPath>
    <clipPath
       clipPathUnits="userSpaceOnUse"
       id="clipPath68">
      <path
         d="M 0,660 H 660 V 0 H 0 Z"
         transform="translate(-142.69341,-160.98441)"
         id="path68" />
    </clipPath>
    <clipPath
       clipPathUnits="userSpaceOnUse"
       id="clipPath70">
      <path
         d="M 0,660 H 660 V 0 H 0 Z"
         transform="translate(-129.72561,-201.16411)"
         id="path70" />
    </clipPath>
    <clipPath
       clipPathUnits="userSpaceOnUse"
       id="clipPath72">
      <path
         d="M 0,660 H 660 V 0 H 0 Z"
         transform="translate(-127.36131,-203.62791)"
         id="path72" />
    </clipPath>
    <clipPath
       clipPathUnits="userSpaceOnUse"
       id="clipPath74">
      <path
         d="M 0,660 H 660 V 0 H 0 Z"
         transform="translate(-122.8872,-21.607403)"
         id="path74" />
    </clipPath>
    <clipPath
       clipPathUnits="userSpaceOnUse"
       id="clipPath76">
      <path
         d="M 0,660 H 660 V 0 H 0 Z"
         transform="translate(-116.8633,-27.885698)"
         id="path76" />
    </clipPath>
    <clipPath
       clipPathUnits="userSpaceOnUse"
       id="clipPath78">
      <path
         d="M 0,660 H 660 V 0 H 0 Z"
         transform="translate(-374.33591,-176.7373)"
         id="path78" />
    </clipPath>
    <clipPath
       clipPathUnits="userSpaceOnUse"
       id="clipPath80">
      <path
         d="M 0,660 H 660 V 0 H 0 Z"
         transform="translate(-371.97171,-179.19921)"
         id="path80" />
    </clipPath>
    <clipPath
       clipPathUnits="userSpaceOnUse"
       id="clipPath82">
      <path
         d="M 0,660 H 660 V 0 H 0 Z"
         transform="translate(-307.08201,-208.1641)"
         id="path82" />
    </clipPath>
    <clipPath
       clipPathUnits="userSpaceOnUse"
       id="clipPath84">
      <path
         d="M 0,660 H 660 V 0 H 0 Z"
         transform="translate(-305.28561,-210.03321)"
         id="path84" />
    </clipPath>
    <clipPath
       clipPathUnits="userSpaceOnUse"
       id="clipPath86">
      <path
         d="M 0,660 H 660 V 0 H 0 Z"
         transform="translate(-446.37791,-200.7607)"
         id="path86" />
    </clipPath>
    <clipPath
       clipPathUnits="userSpaceOnUse"
       id="clipPath88">
      <path
         d="M 0,660 H 660 V 0 H 0 Z"
         transform="translate(-444.01371,-203.2246)"
         id="path88" />
    </clipPath>
    <clipPath
       clipPathUnits="userSpaceOnUse"
       id="clipPath90">
      <path
         d="M 0,660 H 660 V 0 H 0 Z"
         transform="translate(-617.09962,-204.77151)"
         id="path90" />
    </clipPath>
    <clipPath
       clipPathUnits="userSpaceOnUse"
       id="clipPath92">
      <path
         d="M 0,660 H 660 V 0 H 0 Z"
         transform="translate(-614.73632,-207.2344)"
         id="path92" />
    </clipPath>
    <clipPath
       clipPathUnits="userSpaceOnUse"
       id="clipPath94">
      <path
         d="M 0,660 H 660 V 0 H 0 Z"
         transform="translate(-580.68262,-193.1602)"
         id="path94" />
    </clipPath>
    <clipPath
       clipPathUnits="userSpaceOnUse"
       id="clipPath96">
      <path
         d="M 0,660 H 660 V 0 H 0 Z"
         transform="translate(-578.31841,-195.62211)"
         id="path96" />
    </clipPath>
    <clipPath
       clipPathUnits="userSpaceOnUse"
       id="clipPath98">
      <path
         d="M 0,660 H 660 V 0 H 0 Z"
         transform="translate(-393.31741,-22.683601)"
         id="path98" />
    </clipPath>
    <clipPath
       clipPathUnits="userSpaceOnUse"
       id="clipPath100">
      <path
         d="M 0,660 H 660 V 0 H 0 Z"
         transform="translate(-388.14361,-28.073198)"
         id="path100" />
    </clipPath>
    <clipPath
       clipPathUnits="userSpaceOnUse"
       id="clipPath102">
      <path
         d="M 0,660 H 660 V 0 H 0 Z"
         transform="translate(-567.78611,-19.443398)"
         id="path102" />
    </clipPath>
    <clipPath
       clipPathUnits="userSpaceOnUse"
       id="clipPath104">
      <path
         d="M 0,660 H 660 V 0 H 0 Z"
         transform="translate(-559.17382,-28.413098)"
         id="path104" />
    </clipPath>
    <clipPath
       clipPathUnits="userSpaceOnUse"
       id="clipPath106">
      <path
         d="M 0,660 H 660 V 0 H 0 Z"
         transform="translate(-268.1152,-30.103501)"
         id="path106" />
    </clipPath>
    <clipPath
       clipPathUnits="userSpaceOnUse"
       id="clipPath108">
      <path
         d="M 0,660 H 660 V 0 H 0 Z"
         transform="translate(-263.78811,-34.611301)"
         id="path108" />
    </clipPath>
    <clipPath
       clipPathUnits="userSpaceOnUse"
       id="clipPath110">
      <path
         d="M 0,660 H 660 V 0 H 0 Z"
         transform="translate(-266.46091,-170.61231)"
         id="path110" />
    </clipPath>
    <clipPath
       clipPathUnits="userSpaceOnUse"
       id="clipPath112">
      <path
         d="M 0,660 H 660 V 0 H 0 Z"
         transform="translate(-262.81201,-174.415)"
         id="path112" />
    </clipPath>
    <clipPath
       clipPathUnits="userSpaceOnUse"
       id="clipPath114">
      <path
         d="M 0,660 H 660 V 0 H 0 Z"
         id="path114" />
    </clipPath>
  </defs>
  <sodipodi:namedview
     id="namedview1"
     pagecolor="#ffffff"
     bordercolor="#000000"
     borderopacity="0.25"
     inkscape:showpageshadow="2"
     inkscape:pageopacity="0.0"
     inkscape:pagecheckerboard="0"
     inkscape:deskcolor="#d1d1d1"
     inkscape:zoom="0.67272727"
     inkscape:cx="439.25676"
     inkscape:cy="440"
     inkscape:window-width="1440"
     inkscape:window-height="830"
     inkscape:window-x="-6"
     inkscape:window-y="-6"
     inkscape:window-maximized="1"
     inkscape:current-layer="g1">
    <inkscape:page
       x="0"
       y="0"
       inkscape:label="1"
       id="page1"
       width="880"
       height="880"
       margin="0 0.0026666699 0 0"
       bleed="0" />
  </sodipodi:namedview>
  <g
     id="g1"
     inkscape:groupmode="layer"
     inkscape:label="1">
    <g
       id="group-MC0">
      <path
         id="path2"
         d="M 0,0 H 659.998 V 660 H 0 Z"
         style="fill:#d3e6f7;fill-opacity:1;fill-rule:nonzero;stroke:none"
         transform="matrix(1.3333333,0,0,-1.3333333,0,880)" />
      <path
         id="path3"
         d="M 0,0 C 0.575,-0.264 1.148,-0.535 1.718,-0.811 1.204,-0.416 0.698,-0.013 0.197,0.398 0.131,0.264 0.067,0.131 0,0 m 301.657,-27.724 c -31.866,0 -57.698,-25.832 -57.698,-57.695 0,-31.865 25.832,-57.696 57.698,-57.696 31.861,0 57.693,25.831 57.693,57.696 0,31.863 -25.832,57.695 -57.693,57.695 M 465.576,161.721 V -61.843 c -11.19,-5.992 -23.974,-9.393 -37.555,-9.393 -44.011,0 -79.689,35.679 -79.689,79.689 0,1.497 0.045,2.981 0.125,4.457 -9.364,-6.56 -20.764,-10.414 -33.064,-10.414 -20.65,0 -38.763,10.852 -48.958,27.16 -2.185,-24.971 -23.143,-44.56 -48.683,-44.56 -3.096,0 -6.124,0.292 -9.061,0.843 1.496,-5.537 2.3,-11.357 2.3,-17.367 0,-36.661 -29.721,-66.38 -66.381,-66.38 -21.346,0 -40.338,10.078 -52.481,25.733 -8.61,-4.99 -18.609,-7.849 -29.275,-7.849 -3.842,0 -7.599,0.374 -11.233,1.082 0.009,-0.545 0.021,-1.091 0.021,-1.638 0,-48.877 -39.624,-88.501 -88.501,-88.501 -16.535,0 -32.007,4.539 -45.246,12.432 -9.954,-3.168 -20.555,-4.884 -31.557,-4.884 -32.607,0 -61.702,15.02 -80.759,38.512 V 90.136 c 1.863,0.182 3.752,0.278 5.663,0.278 14.854,0 28.384,-5.66 38.557,-14.939 7.76,21.527 28.365,36.918 52.565,36.918 9.641,0 18.711,-2.443 26.625,-6.743 1.505,35.337 30.623,63.523 66.33,63.523 36.668,0 66.396,-29.726 66.396,-66.396 0,-0.582 -0.009,-1.164 -0.024,-1.742 21.035,-9.181 35.74,-30.161 35.74,-54.578 0,-6.538 -1.057,-12.829 -3.004,-18.713 3.229,-2.075 6.24,-4.463 8.993,-7.116 11.318,8.967 25.627,14.324 41.19,14.324 8.617,0 16.85,-1.641 24.404,-4.629 -0.09,1.204 -0.136,2.42 -0.136,3.649 0,18.061 9.799,33.833 24.369,42.294 -0.375,2.371 -0.572,4.803 -0.572,7.279 0,25.543 20.706,46.249 46.248,46.249 17.603,0 32.91,-9.837 40.723,-24.313 9.83,7.769 22.247,12.407 35.747,12.407 8.529,0 16.625,-1.853 23.912,-5.177 9.745,18.849 29.415,31.735 52.098,31.735 11.233,0 21.727,-3.161 30.643,-8.641 9.289,14.655 25.203,24.698 43.53,25.916"
         style="fill:#ffffff;fill-opacity:1;fill-rule:evenodd;stroke:none"
         transform="matrix(1.3333333,0,0,-1.3333333,259.2292,411.02533)"
         clip-path="url(#clipPath4)" />
      <path
         id="path5"
         d="m 0,0 8.78,-46.802 -6.483,-1.109 6.803,-0.6 6.535,-34.836 -15.035,-2.07 15.731,-1.634 0.718,-3.829 6.815,-36.337 -16.782,-3.269 17.593,-1.048 9.422,-50.224 H 0 -34.098 l 6.982,37.212 17.839,2.794 -16.982,1.781 8.371,44.624 8.918,1.441 -8.419,1.222 0.34,1.804 5.821,31.028 6.889,1.754 -6.372,1.006 z"
         style="fill:#4b8f33;fill-opacity:1;fill-rule:evenodd;stroke:none"
         transform="matrix(1.3333333,0,0,-1.3333333,361.5612,275.69987)"
         clip-path="url(#clipPath6)" />
      <path
         id="path7"
         d="m 0,0 16.104,-85.833 -11.888,-2.036 12.475,-1.099 11.988,-63.886 -27.575,-3.8 28.847,-2.995 1.319,-7.021 12.503,-66.643 -30.781,-5.997 32.265,-1.919 17.278,-92.111 H 0 -62.532 l 12.801,68.244 32.717,5.124 -31.143,3.266 15.352,81.843 16.358,2.641 -15.439,2.242 0.62,3.31 10.675,56.903 12.634,3.216 -11.683,1.845 z"
         style="fill:#448733;fill-opacity:1;fill-rule:evenodd;stroke:none"
         transform="matrix(1.3333333,0,0,-1.3333333,778.63147,119.21947)"
         clip-path="url(#clipPath8)" />
      <path
         id="path9"
         d="m 0,0 11.726,-62.509 -8.657,-1.483 9.086,-0.8 8.729,-46.525 -20.083,-2.767 21.01,-2.182 0.96,-5.112 9.104,-48.534 -22.416,-4.367 23.498,-1.397 12.584,-67.08 H 0 -45.541 l 9.324,49.698 23.826,3.732 -22.679,2.379 11.18,59.6 11.911,1.926 -11.244,1.631 0.453,2.412 7.774,41.439 9.202,2.342 -8.511,1.344 z"
         style="fill:#3b722e;fill-opacity:1;fill-rule:evenodd;stroke:none"
         transform="matrix(1.3333333,0,0,-1.3333333,257.29173,224.808)"
         clip-path="url(#clipPath10)" />
      <path
         id="path11"
         d="m 0,0 13.024,-69.425 -9.615,-1.646 10.09,-0.889 9.695,-51.673 -22.304,-3.073 23.335,-2.424 1.066,-5.678 10.11,-53.903 -24.895,-4.849 26.098,-1.555 13.975,-74.501 H 0 -50.58 l 10.355,55.199 26.463,4.144 -25.189,2.643 12.418,66.194 13.229,2.138 -12.488,1.812 0.502,2.678 8.634,46.025 10.22,2.601 -9.451,1.493 z"
         style="fill:#448733;fill-opacity:1;fill-rule:evenodd;stroke:none"
         transform="matrix(1.3333333,0,0,-1.3333333,107.10227,184.11267)"
         clip-path="url(#clipPath12)" />
      <path
         id="path13"
         d="m 0,0 v -165.297 c -12.994,-14.604 -31.931,-23.808 -53.016,-23.808 -39.184,0 -70.951,31.767 -70.951,70.951 0,1.093 0.029,2.18 0.077,3.261 -5.899,-15.542 -20.926,-26.589 -38.536,-26.589 -12.839,0 -24.305,5.872 -31.863,15.076 -9.542,-6.617 -21.125,-10.496 -33.616,-10.496 -18.856,0 -35.649,8.836 -46.464,22.592 -9.664,-18.334 -28.905,-30.836 -51.07,-30.836 -18.968,0 -35.796,9.154 -46.312,23.285 -10.327,-6.066 -22.352,-9.547 -35.195,-9.547 -18.658,0 -35.599,7.342 -48.098,19.294 -9.065,-13.304 -24.336,-22.041 -41.651,-22.041 -17.612,0 -33.11,9.042 -42.114,22.735 -9.178,-5.701 -20.007,-8.998 -31.608,-8.998 -14.47,0 -27.742,5.124 -38.104,13.656 -8.436,-12.127 -22.472,-20.067 -38.365,-20.067 -4.552,0 -8.952,0.654 -13.111,1.867 v 89.676 c 4.159,1.215 8.559,1.869 13.111,1.869 7.441,0 14.475,-1.744 20.719,-4.84 8.819,22.15 30.456,37.808 55.75,37.808 24.788,0 46.062,-15.035 55.204,-36.483 5.732,2.267 11.98,3.515 18.518,3.515 8.623,0 16.738,-2.169 23.834,-5.986 9.326,27.447 35.314,47.197 65.915,47.197 13.829,0 26.712,-4.035 37.544,-10.99 9.656,16.956 27.892,28.391 48.799,28.391 30.996,0 56.122,-25.128 56.122,-56.123 0,-0.176 -0.004,-0.353 -0.006,-0.529 10.06,7.948 22.765,12.692 36.582,12.692 26.434,0 48.812,-17.365 56.35,-41.311 2.937,0.664 5.994,1.016 9.129,1.016 10.242,0 19.613,-3.739 26.821,-9.926 0.078,21.176 17.266,38.316 38.459,38.316 13.52,0 25.409,-6.976 32.268,-17.521 2.367,0.399 4.778,0.679 7.221,0.837 -0.242,1.865 -0.367,3.765 -0.367,5.694 0,24.278 19.681,43.959 43.957,43.959 C -9.146,2.299 -4.415,1.49 0,0"
         style="fill:#6fbc3a;fill-opacity:1;fill-rule:evenodd;stroke:none"
         transform="matrix(1.3333333,0,0,-1.3333333,879.99733,464.41533)"
         clip-path="url(#clipPath14)" />
      <path
         id="path15"
         d="M 0.001,0 H 659.998 V 224.64 H 10e-4 Z"
         style="fill:#a6db68;fill-opacity:1;fill-rule:evenodd;stroke:none"
         transform="matrix(1.3333333,0,0,-1.3333333,0,880)"
         clip-path="url(#clipPath16)" />
      <path
         id="path17"
         d="m 0,0 92.281,-10.369 84.017,-59.527 V 12.983 L 67.633,26.884 51.347,21.713 73.127,8.552 7.3,16.768 Z"
         style="fill:#8bd252;fill-opacity:1;fill-rule:evenodd;stroke:none"
         transform="matrix(1.3333333,0,0,-1.3333333,644.9336,674.7188)"
         clip-path="url(#clipPath18)" />
      <path
         id="path19"
         d="m 0,0 h 27.933 v -187.741 c 0,-5.95 -27.933,-5.95 -27.933,0 z"
         style="fill:#948681;fill-opacity:1;fill-rule:evenodd;stroke:none"
         transform="matrix(1.3333333,0,0,-1.3333333,635.95707,419.22333)"
         clip-path="url(#clipPath20)" />
      <path
         id="path21"
         d="m 0,0 v -39.849 c -0.444,-0.008 -0.889,-0.014 -1.336,-0.014 -10.369,0 -19.765,2.201 -26.597,5.765 V -5.75 c 6.832,3.562 16.228,5.764 26.597,5.764 C -0.889,0.014 -0.444,0.008 0,0"
         style="fill:#766864;fill-opacity:1;fill-rule:evenodd;stroke:none"
         transform="matrix(1.3333333,0,0,-1.3333333,673.20053,490.29427)"
         clip-path="url(#clipPath22)" />
      <path
         id="path23"
         d="m 0,61.629 h 659.998 v 77.44 H 0 Z"
         style="fill:#463d3b;fill-opacity:1;fill-rule:evenodd;stroke:none"
         transform="matrix(1.3333333,0,0,-1.3333333,0,880)"
         clip-path="url(#clipPath24)" />
      <path
         id="path25"
         d="M 0,0 288.477,17.4 V -172.171 L 0,-154.772 Z"
         style="fill:#d7c9c4;fill-opacity:1;fill-rule:evenodd;stroke:none"
         transform="matrix(1.3333333,0,0,-1.3333333,430.20707,303.832)"
         clip-path="url(#clipPath26)" />
      <path
         id="path27"
         d="m 0,0 v -144.422 l 277.485,-16.737 V 16.737 Z"
         style="fill:#948681;fill-opacity:1;fill-rule:evenodd;stroke:none"
         transform="matrix(1.3333333,0,0,-1.3333333,434.3288,307.9844)"
         clip-path="url(#clipPath28)" />
      <path
         id="path29"
         d="M 0,0 274.738,-16.572 V 159.097 L 0,142.526 Z"
         style="fill:#efe2de;fill-opacity:1;fill-rule:evenodd;stroke:none"
         transform="matrix(1.3333333,0,0,-1.3333333,437.9916,500.76693)"
         clip-path="url(#clipPath30)" />
      <path
         id="path31"
         d="M 0,0 -258.649,-15.601 V -145.957 C -127.941,-139.764 -21.923,-78.816 0,0"
         style="fill:#f7ece8;fill-opacity:1;fill-rule:evenodd;stroke:none"
         transform="matrix(1.3333333,0,0,-1.3333333,782.8568,289.93093)"
         clip-path="url(#clipPath32)" />
      <path
         id="path33"
         d="m 0,0 -137.875,-8.317 v -99.224 C -71.28,-84.936 -20.832,-46.304 0,0"
         style="fill:#f9f3f0;fill-opacity:1;fill-rule:evenodd;stroke:none"
         transform="matrix(1.3333333,0,0,-1.3333333,621.82547,299.6432)"
         clip-path="url(#clipPath34)" />
      <path
         id="path35"
         d="M 0,0 -13.737,8.428 V -181.143 L 0,-172.716 Z"
         style="fill:#948681;fill-opacity:1;fill-rule:evenodd;stroke:none"
         transform="matrix(1.3333333,0,0,-1.3333333,833.1588,291.86853)"
         clip-path="url(#clipPath36)" />
      <path
         id="path37"
         d="m 0,0 v 114.861 l 247.193,14.91 42.366,1.474 -42.353,-3.636 L 2.163,112.829 V 0.343 l -1.081,-41.27 z"
         style="fill:#ffffff;fill-opacity:1;fill-rule:evenodd;stroke:none"
         transform="matrix(1.3333333,0,0,-1.3333333,428.76427,455.62493)"
         clip-path="url(#clipPath38)" />
      <path
         id="path39"
         d="M 0,0 -4.812,-165.977 -13.737,-181.143 0,-172.716 Z"
         style="fill:#6c5955;fill-opacity:1;fill-rule:evenodd;stroke:none"
         transform="matrix(1.3333333,0,0,-1.3333333,833.1588,291.86853)"
         clip-path="url(#clipPath40)" />
      <path
         id="path41"
         d="M 0,0 H 77.631 V -55.005 Z"
         style="fill:#2f2825;fill-opacity:1;fill-rule:evenodd;stroke:none"
         transform="matrix(1.3333333,0,0,-1.3333333,776.4896,694.57427)"
         clip-path="url(#clipPath42)" />
      <path
         id="path43"
         d="m 0,0 c 29.255,0 53.116,23.861 53.116,53.116 0,29.257 -23.861,53.117 -53.116,53.117 -29.256,0 -53.117,-23.86 -53.117,-53.117 C -53.117,23.861 -29.256,0 0,0"
         style="fill:#ffffff;fill-opacity:1;fill-rule:evenodd;stroke:none"
         transform="matrix(1.3333333,0,0,-1.3333333,86.311867,155.2416)"
         clip-path="url(#clipPath44)" />
      <path
         id="path45"
         d="m 0,0 c 0.036,-0.068 0.067,-0.142 0.09,-0.215 0.2,-0.663 -0.282,-1.23 -1.08,-1.267 -0.797,-0.038 -1.608,0.468 -1.809,1.13 -0.023,0.075 -0.036,0.148 -0.043,0.219 -0.099,-0.059 -0.207,-0.119 -0.325,-0.177 -1.05,-0.525 -2.413,-0.793 -3.045,-0.597 -0.631,0.195 -0.292,0.779 0.758,1.303 0.117,0.059 0.239,0.114 0.363,0.166 -0.178,-0.015 -0.361,-0.027 -0.55,-0.034 -1.686,-0.081 -3.131,0.11 -3.226,0.423 -0.095,0.315 1.195,0.632 2.882,0.711 0.188,0.009 0.373,0.015 0.554,0.017 -0.152,0.04 -0.302,0.082 -0.452,0.128 -1.334,0.413 -2.015,0.948 -1.518,1.197 0.497,0.247 1.981,0.114 3.316,-0.298 0.15,-0.047 0.291,-0.095 0.423,-0.143 -0.037,0.07 -0.067,0.143 -0.089,0.215 -0.202,0.664 0.281,1.232 1.079,1.269 0.797,0.037 1.608,-0.47 1.81,-1.133 0.022,-0.073 0.036,-0.145 0.042,-0.218 0.099,0.06 0.207,0.119 0.325,0.178 1.05,0.524 2.413,0.793 3.044,0.597 C 3.181,3.275 2.842,2.692 1.791,2.168 1.674,2.109 1.553,2.053 1.429,2.002 1.606,2.016 1.79,2.027 1.979,2.036 3.665,2.117 5.109,1.926 5.205,1.613 5.3,1.299 4.01,0.981 2.324,0.9 2.135,0.894 1.95,0.887 1.769,0.884 1.92,0.846 2.072,0.804 2.221,0.758 3.556,0.345 4.235,-0.19 3.739,-0.439 3.243,-0.688 1.757,-0.555 0.422,-0.142 0.273,-0.095 0.132,-0.048 0,0"
         style="fill:#ffffff;fill-opacity:1;fill-rule:evenodd;stroke:none"
         transform="matrix(1.3333333,0,0,-1.3333333,13.796933,590.93093)"
         clip-path="url(#clipPath46)" />
      <path
         id="path47"
         d="M 0,0 C 1.287,0.059 2.456,-0.302 2.61,-0.809 2.764,-1.314 1.845,-1.773 0.557,-1.834 -0.73,-1.895 -1.899,-1.532 -2.053,-1.026 -2.207,-0.521 -1.288,-0.062 0,0"
         style="fill:#f9de1c;fill-opacity:1;fill-rule:evenodd;stroke:none"
         transform="matrix(1.3333333,0,0,-1.3333333,10.9844,587.99867)"
         clip-path="url(#clipPath48)" />
      <path
         id="path49"
         d="m 0,0 c 0.041,-0.077 0.075,-0.159 0.101,-0.241 0.225,-0.744 -0.316,-1.379 -1.21,-1.422 -0.894,-0.042 -1.802,0.525 -2.028,1.269 -0.026,0.082 -0.041,0.164 -0.048,0.244 -0.111,-0.066 -0.233,-0.133 -0.364,-0.199 -1.177,-0.587 -2.705,-0.886 -3.413,-0.669 -0.707,0.219 -0.327,0.873 0.85,1.462 0.132,0.066 0.267,0.127 0.406,0.187 C -5.904,0.614 -6.11,0.6 -6.322,0.591 c -1.89,-0.09 -3.509,0.123 -3.616,0.474 -0.107,0.353 1.339,0.708 3.229,0.798 0.211,0.009 0.419,0.017 0.622,0.018 -0.17,0.045 -0.338,0.093 -0.506,0.143 -1.496,0.464 -2.259,1.063 -1.701,1.342 0.556,0.279 2.22,0.128 3.716,-0.334 0.168,-0.053 0.326,-0.104 0.474,-0.16 -0.042,0.078 -0.075,0.16 -0.1,0.242 -0.226,0.743 0.316,1.38 1.209,1.422 0.895,0.041 1.803,-0.526 2.028,-1.27 0.026,-0.082 0.041,-0.164 0.048,-0.245 0.111,0.068 0.232,0.134 0.364,0.201 C 0.622,3.809 2.15,4.108 2.857,3.889 3.565,3.671 3.185,3.017 2.008,2.428 1.876,2.362 1.741,2.302 1.602,2.243 1.801,2.258 2.007,2.271 2.218,2.282 4.108,2.371 5.728,2.158 5.834,1.807 5.941,1.455 4.496,1.099 2.604,1.009 2.394,1 2.186,0.994 1.983,0.991 2.152,0.948 2.322,0.898 2.49,0.849 3.986,0.386 4.748,-0.215 4.191,-0.493 3.635,-0.773 1.97,-0.621 0.474,-0.159 0.306,-0.107 0.148,-0.054 0,0"
         style="fill:#ffffff;fill-opacity:1;fill-rule:evenodd;stroke:none"
         transform="matrix(1.3333333,0,0,-1.3333333,71.504533,603.76947)"
         clip-path="url(#clipPath50)" />
      <path
         id="path51"
         d="m 0,0 c 1.444,0.068 2.753,-0.337 2.925,-0.903 0.173,-0.569 -0.857,-1.082 -2.3,-1.15 -1.443,-0.068 -2.753,0.337 -2.926,0.904 C -2.473,-0.582 -1.443,-0.067 0,0"
         style="fill:#f9de1c;fill-opacity:1;fill-rule:evenodd;stroke:none"
         transform="matrix(1.3333333,0,0,-1.3333333,68.352267,600.48573)"
         clip-path="url(#clipPath52)" />
      <path
         id="path53"
         d="m 0,0 c 0.041,-0.078 0.075,-0.158 0.101,-0.242 0.225,-0.742 -0.316,-1.379 -1.21,-1.422 -0.894,-0.042 -1.802,0.528 -2.028,1.271 -0.025,0.082 -0.041,0.164 -0.048,0.244 -0.111,-0.068 -0.232,-0.133 -0.364,-0.199 -1.177,-0.588 -2.705,-0.888 -3.413,-0.669 -0.707,0.219 -0.327,0.872 0.85,1.46 C -5.98,0.51 -5.845,0.572 -5.706,0.63 -5.905,0.613 -6.11,0.601 -6.322,0.59 -8.211,0.502 -9.831,0.714 -9.938,1.066 c -0.107,0.351 1.339,0.707 3.229,0.797 0.212,0.009 0.419,0.016 0.622,0.018 -0.17,0.045 -0.338,0.092 -0.506,0.144 -1.496,0.462 -2.259,1.063 -1.701,1.34 0.556,0.279 2.22,0.13 3.716,-0.334 0.168,-0.051 0.326,-0.104 0.474,-0.159 -0.042,0.079 -0.075,0.159 -0.1,0.241 -0.226,0.744 0.316,1.381 1.209,1.422 0.895,0.042 1.803,-0.526 2.028,-1.268 0.026,-0.083 0.041,-0.165 0.048,-0.244 0.111,0.065 0.232,0.132 0.364,0.198 C 0.622,3.81 2.15,4.109 2.857,3.89 3.565,3.671 3.185,3.017 2.008,2.43 1.876,2.363 1.741,2.301 1.602,2.243 1.801,2.26 2.007,2.273 2.218,2.281 4.109,2.371 5.728,2.158 5.834,1.807 5.941,1.456 4.496,1.098 2.605,1.01 2.394,1 2.186,0.994 1.983,0.991 2.152,0.947 2.322,0.9 2.489,0.848 3.986,0.386 4.748,-0.215 4.191,-0.494 3.634,-0.771 1.97,-0.622 0.474,-0.16 0.306,-0.107 0.148,-0.054 0,0"
         style="fill:#ffffff;fill-opacity:1;fill-rule:evenodd;stroke:none"
         transform="matrix(1.3333333,0,0,-1.3333333,33.514933,636.5912)"
         clip-path="url(#clipPath54)" />
      <path
         id="path55"
         d="M 0,0 C 1.444,0.066 2.753,-0.337 2.925,-0.905 3.098,-1.472 2.068,-1.987 0.624,-2.055 -0.819,-2.123 -2.128,-1.718 -2.301,-1.151 -2.473,-0.583 -1.443,-0.069 0,0"
         style="fill:#f9de1c;fill-opacity:1;fill-rule:evenodd;stroke:none"
         transform="matrix(1.3333333,0,0,-1.3333333,30.362667,633.306)"
         clip-path="url(#clipPath56)" />
      <path
         id="path57"
         d="m 0,0 c 0.041,-0.078 0.075,-0.158 0.101,-0.241 0.225,-0.744 -0.316,-1.379 -1.21,-1.423 -0.894,-0.041 -1.802,0.526 -2.028,1.271 -0.026,0.083 -0.041,0.164 -0.047,0.244 -0.112,-0.068 -0.233,-0.134 -0.365,-0.2 -1.177,-0.587 -2.705,-0.887 -3.413,-0.668 -0.707,0.218 -0.327,0.872 0.85,1.461 0.132,0.066 0.267,0.126 0.406,0.186 -0.199,-0.016 -0.405,-0.029 -0.616,-0.04 -1.89,-0.089 -3.509,0.124 -3.616,0.475 -0.107,0.352 1.339,0.708 3.23,0.798 0.211,0.009 0.418,0.017 0.621,0.018 -0.17,0.045 -0.339,0.093 -0.506,0.143 -1.496,0.463 -2.259,1.063 -1.702,1.341 0.557,0.28 2.221,0.129 3.717,-0.334 0.168,-0.051 0.326,-0.103 0.473,-0.159 -0.041,0.077 -0.075,0.159 -0.099,0.241 -0.226,0.744 0.315,1.381 1.209,1.422 0.894,0.042 1.802,-0.525 2.028,-1.267 0.026,-0.084 0.041,-0.166 0.048,-0.245 0.111,0.065 0.232,0.132 0.364,0.198 C 0.622,3.81 2.149,4.107 2.857,3.889 3.566,3.671 3.185,3.017 2.008,2.43 1.876,2.362 1.741,2.301 1.602,2.243 1.801,2.26 2.006,2.273 2.218,2.282 4.108,2.371 5.728,2.158 5.834,1.807 5.941,1.455 4.495,1.099 2.604,1.009 2.394,1 2.186,0.994 1.982,0.991 2.152,0.948 2.322,0.898 2.489,0.848 3.986,0.386 4.747,-0.215 4.191,-0.493 3.634,-0.772 1.97,-0.622 0.473,-0.16 0.306,-0.107 0.148,-0.054 0,0"
         style="fill:#ffffff;fill-opacity:1;fill-rule:evenodd;stroke:none"
         transform="matrix(1.3333333,0,0,-1.3333333,111.83133,649.10027)"
         clip-path="url(#clipPath58)" />
      <path
         id="path59"
         d="M 0,0 C 1.443,0.067 2.753,-0.339 2.925,-0.905 3.098,-1.472 2.068,-1.987 0.625,-2.054 -0.819,-2.123 -2.128,-1.717 -2.301,-1.15 -2.474,-0.583 -1.443,-0.068 0,0"
         style="fill:#f9de1c;fill-opacity:1;fill-rule:evenodd;stroke:none"
         transform="matrix(1.3333333,0,0,-1.3333333,108.67907,645.81507)"
         clip-path="url(#clipPath60)" />
      <path
         id="path61"
         d="m 0,0 c 0.041,-0.079 0.075,-0.159 0.1,-0.243 0.227,-0.742 -0.315,-1.378 -1.21,-1.422 -0.893,-0.041 -1.801,0.528 -2.027,1.27 -0.026,0.083 -0.042,0.165 -0.048,0.245 -0.111,-0.068 -0.233,-0.133 -0.364,-0.199 -1.177,-0.588 -2.705,-0.888 -3.413,-0.669 -0.707,0.219 -0.327,0.872 0.849,1.461 0.132,0.066 0.269,0.128 0.406,0.186 C -5.905,0.613 -6.11,0.6 -6.322,0.589 c -1.89,-0.088 -3.509,0.124 -3.616,0.475 -0.107,0.352 1.339,0.708 3.229,0.798 0.211,0.009 0.419,0.016 0.622,0.02 -0.17,0.043 -0.339,0.091 -0.506,0.142 -1.497,0.462 -2.259,1.063 -1.702,1.34 0.557,0.279 2.221,0.13 3.717,-0.334 0.168,-0.051 0.326,-0.103 0.474,-0.159 -0.041,0.079 -0.076,0.159 -0.101,0.243 -0.226,0.742 0.316,1.379 1.21,1.42 0.894,0.042 1.802,-0.525 2.028,-1.267 0.026,-0.084 0.041,-0.166 0.048,-0.246 0.111,0.066 0.232,0.133 0.364,0.199 C 0.622,3.809 2.149,4.108 2.857,3.89 3.565,3.67 3.184,3.016 2.008,2.429 1.876,2.363 1.74,2.3 1.602,2.242 1.801,2.259 2.006,2.271 2.218,2.281 4.108,2.37 5.727,2.157 5.833,1.806 5.941,1.455 4.495,1.098 2.605,1.01 2.394,0.999 2.185,0.993 1.982,0.99 2.152,0.947 2.322,0.899 2.489,0.847 3.986,0.385 4.748,-0.216 4.191,-0.494 3.634,-0.771 1.97,-0.623 0.473,-0.161 0.306,-0.108 0.148,-0.055 0,0"
         style="fill:#ffffff;fill-opacity:1;fill-rule:evenodd;stroke:none"
         transform="matrix(1.3333333,0,0,-1.3333333,259.17453,630.4648)"
         clip-path="url(#clipPath62)" />
      <path
         id="path63"
         d="M 0,0 C 1.444,0.066 2.753,-0.337 2.926,-0.905 3.099,-1.472 2.068,-1.987 0.625,-2.054 -0.818,-2.123 -2.128,-1.718 -2.301,-1.149 -2.473,-0.583 -1.443,-0.068 0,0"
         style="fill:#f9de1c;fill-opacity:1;fill-rule:evenodd;stroke:none"
         transform="matrix(1.3333333,0,0,-1.3333333,256.02147,627.18093)"
         clip-path="url(#clipPath64)" />
      <path
         id="path65"
         d="m 0,0 c 0.052,-0.098 0.096,-0.199 0.128,-0.307 0.287,-0.942 -0.4,-1.75 -1.536,-1.803 -1.134,-0.054 -2.288,0.668 -2.574,1.613 -0.033,0.103 -0.052,0.208 -0.061,0.31 -0.141,-0.086 -0.296,-0.17 -0.463,-0.253 -1.493,-0.747 -3.433,-1.127 -4.332,-0.85 -0.898,0.276 -0.415,1.108 1.078,1.853 0.167,0.084 0.34,0.165 0.516,0.24 -0.252,-0.022 -0.513,-0.039 -0.782,-0.051 -2.4,-0.113 -4.455,0.157 -4.591,0.602 -0.135,0.447 1.7,0.9 4.1,1.013 0.268,0.012 0.532,0.019 0.79,0.025 -0.216,0.053 -0.431,0.116 -0.643,0.18 -1.9,0.587 -2.867,1.349 -2.161,1.702 0.708,0.354 2.821,0.164 4.72,-0.422 0.212,-0.066 0.413,-0.135 0.601,-0.204 -0.052,0.099 -0.096,0.202 -0.127,0.308 -0.287,0.941 0.401,1.749 1.536,1.803 1.134,0.053 2.287,-0.667 2.574,-1.612 0.033,-0.103 0.052,-0.208 0.06,-0.309 0.142,0.085 0.296,0.17 0.463,0.253 C 0.79,4.838 2.73,5.218 3.628,4.939 4.527,4.662 4.044,3.832 2.55,3.085 2.383,3.002 2.211,2.923 2.034,2.85 2.287,2.869 2.548,2.886 2.816,2.898 5.216,3.012 7.271,2.742 7.407,2.296 7.544,1.849 5.707,1.396 3.308,1.282 3.04,1.271 2.775,1.265 2.518,1.259 2.733,1.205 2.948,1.143 3.16,1.076 5.06,0.492 6.028,-0.271 5.321,-0.626 4.614,-0.978 2.501,-0.787 0.602,-0.202 0.389,-0.137 0.189,-0.068 0,0"
         style="fill:#ffffff;fill-opacity:1;fill-rule:evenodd;stroke:none"
         transform="matrix(1.3333333,0,0,-1.3333333,194.25907,669.5248)"
         clip-path="url(#clipPath66)" />
      <path
         id="path67"
         d="M 0,0 C 1.832,0.087 3.495,-0.428 3.714,-1.148 3.933,-1.866 2.625,-2.52 0.793,-2.605 -1.039,-2.692 -2.703,-2.18 -2.921,-1.458 -3.141,-0.739 -1.833,-0.086 0,0"
         style="fill:#f9de1c;fill-opacity:1;fill-rule:evenodd;stroke:none"
         transform="matrix(1.3333333,0,0,-1.3333333,190.25787,665.35413)"
         clip-path="url(#clipPath68)" />
      <path
         id="path69"
         d="m 0,0 c 0.041,-0.077 0.075,-0.157 0.101,-0.241 0.225,-0.743 -0.317,-1.379 -1.21,-1.422 -0.894,-0.042 -1.802,0.526 -2.028,1.269 -0.026,0.084 -0.041,0.165 -0.048,0.246 -0.111,-0.068 -0.233,-0.135 -0.364,-0.201 -1.177,-0.587 -2.705,-0.886 -3.413,-0.668 -0.707,0.218 -0.327,0.872 0.849,1.461 0.132,0.066 0.268,0.127 0.406,0.187 -0.198,-0.017 -0.404,-0.029 -0.615,-0.04 -1.89,-0.09 -3.509,0.124 -3.616,0.475 -0.107,0.352 1.339,0.708 3.229,0.797 0.211,0.009 0.419,0.017 0.622,0.019 -0.17,0.044 -0.339,0.092 -0.507,0.142 -1.496,0.464 -2.258,1.063 -1.701,1.342 0.557,0.279 2.221,0.128 3.717,-0.334 0.168,-0.052 0.326,-0.104 0.474,-0.159 -0.041,0.077 -0.076,0.159 -0.101,0.241 -0.225,0.744 0.316,1.38 1.21,1.422 0.894,0.042 1.802,-0.526 2.028,-1.268 0.026,-0.083 0.041,-0.165 0.048,-0.245 0.111,0.066 0.233,0.133 0.363,0.199 C 0.622,3.811 2.149,4.108 2.857,3.89 3.565,3.672 3.185,3.018 2.008,2.43 1.877,2.363 1.741,2.302 1.602,2.244 1.8,2.26 2.006,2.272 2.218,2.282 4.108,2.372 5.728,2.159 5.834,1.807 5.941,1.455 4.495,1.099 2.605,1.01 2.394,1.001 2.185,0.994 1.982,0.991 2.152,0.948 2.321,0.899 2.489,0.849 3.985,0.387 4.747,-0.214 4.19,-0.493 3.634,-0.771 1.97,-0.621 0.473,-0.159 0.305,-0.107 0.148,-0.054 0,0"
         style="fill:#ffffff;fill-opacity:1;fill-rule:evenodd;stroke:none"
         transform="matrix(1.3333333,0,0,-1.3333333,172.96747,611.7812)"
         clip-path="url(#clipPath70)" />
      <path
         id="path71"
         d="M 0,0 C 1.443,0.067 2.753,-0.338 2.925,-0.904 3.098,-1.471 2.068,-1.986 0.624,-2.054 -0.819,-2.122 -2.128,-1.717 -2.301,-1.15 -2.474,-0.582 -1.443,-0.068 0,0"
         style="fill:#f9de1c;fill-opacity:1;fill-rule:evenodd;stroke:none"
         transform="matrix(1.3333333,0,0,-1.3333333,169.81507,608.49613)"
         clip-path="url(#clipPath72)" />
      <path
         id="path73"
         d="m 0,0 c 0.105,-0.197 0.192,-0.405 0.256,-0.617 0.577,-1.891 -0.803,-3.512 -3.082,-3.619 -2.278,-0.108 -4.591,1.339 -5.168,3.231 -0.064,0.212 -0.103,0.42 -0.12,0.623 -0.283,-0.17 -0.593,-0.34 -0.929,-0.507 -2.999,-1.496 -6.892,-2.259 -8.696,-1.702 -1.803,0.558 -0.834,2.224 2.164,3.721 0.336,0.17 0.682,0.328 1.036,0.474 -0.506,-0.04 -1.03,-0.075 -1.569,-0.099 -4.817,-0.227 -8.942,0.316 -9.215,1.211 -0.272,0.894 3.412,1.804 8.229,2.03 0.538,0.026 1.068,0.041 1.584,0.048 -0.432,0.113 -0.863,0.235 -1.29,0.366 -3.813,1.178 -5.754,2.707 -4.336,3.416 1.418,0.71 5.66,0.328 9.472,-0.849 0.427,-0.134 0.83,-0.268 1.207,-0.409 -0.106,0.201 -0.191,0.406 -0.255,0.618 -0.577,1.892 0.803,3.514 3.081,3.622 2.279,0.107 4.593,-1.342 5.168,-3.235 0.065,-0.212 0.105,-0.421 0.122,-0.623 0.283,0.17 0.593,0.34 0.928,0.507 C 1.586,9.706 5.479,10.47 7.282,9.912 9.086,9.354 8.117,7.688 5.119,6.188 4.784,6.021 4.437,5.863 4.083,5.715 4.59,5.757 5.114,5.789 5.652,5.816 10.468,6.043 14.594,5.5 14.867,4.603 15.139,3.708 11.455,2.799 6.639,2.572 6.1,2.549 5.57,2.534 5.053,2.524 5.485,2.414 5.917,2.292 6.344,2.161 10.157,0.983 12.098,-0.549 10.679,-1.255 9.261,-1.965 5.021,-1.586 1.207,-0.405 0.781,-0.274 0.378,-0.138 0,0"
         style="fill:#ffffff;fill-opacity:1;fill-rule:evenodd;stroke:none"
         transform="matrix(1.3333333,0,0,-1.3333333,163.8496,851.19013)"
         clip-path="url(#clipPath74)" />
      <path
         id="path75"
         d="M 0,0 C 3.677,0.173 7.016,-0.858 7.455,-2.305 7.894,-3.751 5.27,-5.062 1.592,-5.235 -2.085,-5.408 -5.423,-4.377 -5.863,-2.931 -6.303,-1.484 -3.677,-0.173 0,0"
         style="fill:#f9de1c;fill-opacity:1;fill-rule:evenodd;stroke:none"
         transform="matrix(1.3333333,0,0,-1.3333333,155.81773,842.81907)"
         clip-path="url(#clipPath76)" />
      <path
         id="path77"
         d="m 0,0 c 0.042,-0.079 0.076,-0.16 0.102,-0.243 0.226,-0.744 -0.317,-1.379 -1.21,-1.422 -0.895,-0.042 -1.801,0.527 -2.028,1.27 -0.025,0.084 -0.042,0.166 -0.048,0.245 -0.112,-0.068 -0.232,-0.133 -0.363,-0.199 -1.178,-0.588 -2.706,-0.888 -3.414,-0.669 -0.708,0.219 -0.326,0.872 0.85,1.46 0.131,0.066 0.268,0.128 0.405,0.187 -0.198,-0.017 -0.403,-0.03 -0.615,-0.04 -1.89,-0.088 -3.509,0.123 -3.617,0.476 -0.105,0.351 1.34,0.708 3.231,0.796 0.21,0.009 0.419,0.017 0.621,0.02 -0.17,0.043 -0.338,0.091 -0.507,0.143 -1.496,0.462 -2.257,1.063 -1.7,1.34 0.556,0.279 2.221,0.129 3.717,-0.334 0.167,-0.05 0.325,-0.104 0.473,-0.16 -0.04,0.078 -0.075,0.16 -0.1,0.243 -0.227,0.742 0.316,1.379 1.21,1.421 0.893,0.042 1.801,-0.526 2.027,-1.268 0.026,-0.083 0.042,-0.165 0.048,-0.245 0.11,0.066 0.233,0.132 0.363,0.199 C 0.623,3.809 2.151,4.107 2.859,3.889 3.567,3.67 3.186,3.016 2.01,2.428 1.878,2.362 1.741,2.3 1.603,2.241 1.803,2.258 2.008,2.271 2.22,2.28 4.109,2.37 5.729,2.156 5.836,1.805 5.941,1.454 4.496,1.097 2.605,1.009 2.395,0.998 2.187,0.992 1.984,0.989 2.154,0.946 2.322,0.898 2.491,0.847 3.987,0.385 4.749,-0.217 4.191,-0.495 3.636,-0.772 1.971,-0.623 0.475,-0.161 0.308,-0.109 0.15,-0.056 0,0"
         style="fill:#ffffff;fill-opacity:1;fill-rule:evenodd;stroke:none"
         transform="matrix(1.3333333,0,0,-1.3333333,499.11453,644.35027)"
         clip-path="url(#clipPath78)" />
      <path
         id="path79"
         d="M 0,0 C 1.444,0.067 2.754,-0.337 2.927,-0.904 3.1,-1.471 2.069,-1.986 0.626,-2.054 -0.818,-2.122 -2.127,-1.717 -2.3,-1.15 -2.473,-0.583 -1.442,-0.068 0,0"
         style="fill:#f9de1c;fill-opacity:1;fill-rule:evenodd;stroke:none"
         transform="matrix(1.3333333,0,0,-1.3333333,495.96227,641.06773)"
         clip-path="url(#clipPath80)" />
      <path
         id="path81"
         d="m 0,0 c 0.03,-0.06 0.057,-0.122 0.076,-0.185 0.171,-0.563 -0.24,-1.046 -0.92,-1.079 -0.678,-0.031 -1.368,0.4 -1.54,0.964 -0.019,0.063 -0.031,0.126 -0.035,0.186 -0.085,-0.051 -0.178,-0.102 -0.276,-0.152 -0.894,-0.447 -2.054,-0.673 -2.594,-0.507 -0.536,0.167 -0.247,0.663 0.647,1.109 0.099,0.05 0.203,0.097 0.307,0.142 -0.15,-0.013 -0.307,-0.023 -0.468,-0.031 -1.434,-0.067 -2.663,0.094 -2.745,0.361 -0.081,0.268 1.016,0.538 2.453,0.605 0.161,0.009 0.318,0.014 0.471,0.015 -0.128,0.033 -0.256,0.07 -0.384,0.109 -1.137,0.352 -1.715,0.808 -1.291,1.018 0.422,0.212 1.686,0.098 2.823,-0.253 0.126,-0.039 0.246,-0.079 0.357,-0.121 -0.029,0.059 -0.056,0.121 -0.074,0.183 -0.173,0.565 0.238,1.048 0.918,1.079 0.68,0.034 1.369,-0.399 1.54,-0.963 0.019,-0.064 0.031,-0.125 0.037,-0.186 0.084,0.051 0.176,0.102 0.276,0.152 C 0.471,2.892 1.632,3.12 2.17,2.953 2.707,2.787 2.417,2.291 1.524,1.844 1.425,1.793 1.32,1.747 1.216,1.702 1.367,1.714 1.523,1.725 1.684,1.732 3.118,1.799 4.349,1.639 4.43,1.371 4.51,1.105 3.413,0.833 1.978,0.767 1.817,0.759 1.66,0.754 1.505,0.751 1.633,0.719 1.762,0.683 1.89,0.643 3.025,0.292 3.604,-0.164 3.182,-0.376 2.76,-0.587 1.495,-0.474 0.359,-0.122 0.232,-0.083 0.111,-0.042 0,0"
         style="fill:#ffffff;fill-opacity:1;fill-rule:evenodd;stroke:none"
         transform="matrix(1.3333333,0,0,-1.3333333,409.44267,602.44787)"
         clip-path="url(#clipPath82)" />
      <path
         id="path83"
         d="M 0,0 C 1.096,0.053 2.091,-0.255 2.223,-0.685 2.354,-1.116 1.571,-1.507 0.476,-1.559 -0.621,-1.609 -1.617,-1.303 -1.747,-0.872 -1.878,-0.441 -1.096,-0.051 0,0"
         style="fill:#f9de1c;fill-opacity:1;fill-rule:evenodd;stroke:none"
         transform="matrix(1.3333333,0,0,-1.3333333,407.04747,599.95573)"
         clip-path="url(#clipPath84)" />
      <path
         id="path85"
         d="m 0,0 c 0.042,-0.078 0.075,-0.158 0.1,-0.241 0.226,-0.743 -0.316,-1.379 -1.208,-1.423 -0.895,-0.041 -1.803,0.528 -2.03,1.271 -0.025,0.082 -0.04,0.164 -0.048,0.244 -0.11,-0.068 -0.232,-0.133 -0.363,-0.2 -1.178,-0.588 -2.705,-0.887 -3.413,-0.668 -0.707,0.219 -0.327,0.872 0.85,1.461 0.132,0.066 0.267,0.128 0.406,0.186 -0.199,-0.016 -0.403,-0.029 -0.615,-0.04 -1.892,-0.088 -3.511,0.124 -3.617,0.476 -0.107,0.351 1.339,0.707 3.229,0.797 0.212,0.01 0.419,0.016 0.622,0.02 -0.17,0.043 -0.339,0.091 -0.506,0.142 -1.496,0.462 -2.26,1.062 -1.702,1.34 0.558,0.28 2.221,0.13 3.718,-0.334 C -4.41,2.98 -4.252,2.927 -4.104,2.872 -4.146,2.951 -4.18,3.031 -4.205,3.115 -4.43,3.857 -3.889,4.494 -2.994,4.535 -2.1,4.577 -1.192,4.01 -0.967,3.267 -0.941,3.184 -0.926,3.102 -0.92,3.022 -0.808,3.088 -0.687,3.155 -0.555,3.221 0.622,3.81 2.149,4.109 2.857,3.891 3.565,3.671 3.186,3.017 2.008,2.43 1.877,2.364 1.741,2.301 1.603,2.243 1.801,2.26 2.007,2.272 2.218,2.282 4.108,2.371 5.727,2.158 5.834,1.807 5.941,1.456 4.496,1.099 2.604,1.011 2.394,1 2.186,0.994 1.982,0.991 2.152,0.948 2.322,0.9 2.489,0.848 3.986,0.386 4.748,-0.215 4.191,-0.493 3.634,-0.771 1.971,-0.622 0.475,-0.16 0.306,-0.107 0.147,-0.054 0,0"
         style="fill:#ffffff;fill-opacity:1;fill-rule:evenodd;stroke:none"
         transform="matrix(1.3333333,0,0,-1.3333333,595.17053,612.31907)"
         clip-path="url(#clipPath86)" />
      <path
         id="path87"
         d="M 0,0 C 1.443,0.066 2.754,-0.337 2.925,-0.905 3.098,-1.472 2.067,-1.987 0.625,-2.054 -0.819,-2.123 -2.128,-1.718 -2.301,-1.151 -2.474,-0.583 -1.444,-0.068 0,0"
         style="fill:#f9de1c;fill-opacity:1;fill-rule:evenodd;stroke:none"
         transform="matrix(1.3333333,0,0,-1.3333333,592.01827,609.03387)"
         clip-path="url(#clipPath88)" />
      <path
         id="path89"
         d="m 0,0 c 0.042,-0.079 0.075,-0.159 0.099,-0.243 0.226,-0.742 -0.316,-1.379 -1.207,-1.42 -0.895,-0.044 -1.804,0.526 -2.031,1.268 -0.023,0.084 -0.039,0.166 -0.048,0.245 -0.11,-0.068 -0.232,-0.133 -0.363,-0.199 -1.178,-0.588 -2.704,-0.888 -3.414,-0.669 -0.706,0.219 -0.324,0.873 0.85,1.46 0.134,0.067 0.268,0.129 0.409,0.187 -0.2,-0.017 -0.406,-0.029 -0.617,-0.038 -1.891,-0.09 -3.509,0.123 -3.617,0.473 -0.107,0.352 1.338,0.709 3.229,0.798 0.212,0.01 0.42,0.016 0.623,0.019 -0.17,0.044 -0.34,0.091 -0.507,0.143 -1.497,0.462 -2.26,1.063 -1.702,1.34 0.558,0.279 2.221,0.13 3.718,-0.332 0.166,-0.052 0.324,-0.106 0.473,-0.161 -0.042,0.079 -0.074,0.159 -0.101,0.243 -0.224,0.742 0.316,1.379 1.21,1.42 0.894,0.042 1.804,-0.526 2.027,-1.268 0.028,-0.083 0.042,-0.165 0.048,-0.245 0.113,0.068 0.232,0.133 0.367,0.199 C 0.62,3.809 2.149,4.108 2.856,3.889 3.565,3.67 3.185,3.016 2.007,2.429 1.876,2.362 1.741,2.3 1.602,2.242 1.801,2.259 2.007,2.271 2.219,2.28 4.108,2.37 5.727,2.157 5.834,1.807 5.941,1.455 4.496,1.098 2.602,1.009 2.394,0.999 2.186,0.993 1.982,0.99 2.152,0.946 2.322,0.899 2.489,0.847 3.986,0.385 4.746,-0.216 4.191,-0.495 3.635,-0.771 1.971,-0.623 0.475,-0.161 0.305,-0.108 0.146,-0.055 0,0"
         style="fill:#ffffff;fill-opacity:1;fill-rule:evenodd;stroke:none"
         transform="matrix(1.3333333,0,0,-1.3333333,822.79947,606.97133)"
         clip-path="url(#clipPath90)" />
      <path
         id="path91"
         d="M 0,0 C 1.442,0.066 2.751,-0.337 2.924,-0.905 3.097,-1.472 2.065,-1.985 0.623,-2.055 -0.82,-2.123 -2.129,-1.718 -2.302,-1.149 -2.475,-0.583 -1.446,-0.067 0,0"
         style="fill:#f9de1c;fill-opacity:1;fill-rule:evenodd;stroke:none"
         transform="matrix(1.3333333,0,0,-1.3333333,819.6484,603.68747)"
         clip-path="url(#clipPath92)" />
      <path
         id="path93"
         d="m 0,0 c 0.042,-0.079 0.074,-0.159 0.102,-0.243 0.223,-0.742 -0.317,-1.379 -1.211,-1.42 -0.894,-0.042 -1.804,0.525 -2.031,1.267 -0.023,0.084 -0.038,0.166 -0.044,0.246 -0.113,-0.066 -0.235,-0.133 -0.367,-0.199 -1.175,-0.588 -2.704,-0.888 -3.413,-0.67 -0.707,0.22 -0.325,0.874 0.85,1.461 0.134,0.066 0.268,0.129 0.408,0.187 C -5.905,0.612 -6.111,0.6 -6.323,0.59 c -1.89,-0.089 -3.509,0.124 -3.616,0.474 -0.108,0.352 1.338,0.709 3.228,0.797 0.212,0.011 0.421,0.017 0.623,0.02 -0.17,0.043 -0.34,0.091 -0.507,0.143 -1.496,0.462 -2.256,1.063 -1.702,1.34 0.558,0.278 2.222,0.13 3.718,-0.332 0.167,-0.053 0.325,-0.106 0.474,-0.16 C -4.146,2.95 -4.18,3.03 -4.206,3.113 -4.43,3.856 -3.891,4.492 -2.996,4.534 -2.102,4.576 -1.192,4.008 -0.969,3.266 -0.942,3.183 -0.927,3.1 -0.921,3.021 -0.808,3.089 -0.685,3.154 -0.555,3.22 0.62,3.809 2.149,4.108 2.856,3.889 3.565,3.67 3.184,3.016 2.006,2.428 1.875,2.362 1.741,2.3 1.601,2.242 1.801,2.258 2.006,2.271 2.218,2.282 4.108,2.37 5.727,2.157 5.834,1.807 5.941,1.455 4.495,1.097 2.606,1.009 2.394,0.999 2.185,0.992 1.982,0.989 2.152,0.946 2.322,0.898 2.489,0.847 3.985,0.385 4.746,-0.216 4.191,-0.493 3.634,-0.773 1.971,-0.623 0.474,-0.161 0.304,-0.108 0.146,-0.056 0,0"
         style="fill:#ffffff;fill-opacity:1;fill-rule:evenodd;stroke:none"
         transform="matrix(1.3333333,0,0,-1.3333333,774.24347,622.45307)"
         clip-path="url(#clipPath94)" />
      <path
         id="path95"
         d="M 0,0 C 1.443,0.069 2.752,-0.336 2.925,-0.904 3.098,-1.471 2.066,-1.985 0.623,-2.054 -0.819,-2.122 -2.129,-1.717 -2.302,-1.148 -2.475,-0.582 -1.442,-0.066 0,0"
         style="fill:#f9de1c;fill-opacity:1;fill-rule:evenodd;stroke:none"
         transform="matrix(1.3333333,0,0,-1.3333333,771.0912,619.17053)"
         clip-path="url(#clipPath96)" />
      <path
         id="path97"
         d="m 0,0 c 0.091,-0.17 0.165,-0.349 0.22,-0.531 0.495,-1.624 -0.692,-3.017 -2.649,-3.11 -1.955,-0.091 -3.943,1.152 -4.437,2.78 -0.057,0.181 -0.089,0.36 -0.105,0.533 -0.244,-0.147 -0.509,-0.292 -0.797,-0.436 -2.576,-1.287 -5.921,-1.943 -7.469,-1.464 -1.549,0.481 -0.717,1.912 1.859,3.2 0.287,0.143 0.586,0.28 0.89,0.405 -0.436,-0.035 -0.886,-0.063 -1.348,-0.086 -4.138,-0.194 -7.681,0.271 -7.915,1.04 -0.233,0.77 2.931,1.55 7.067,1.744 0.463,0.024 0.918,0.035 1.363,0.042 -0.371,0.095 -0.743,0.199 -1.11,0.313 -3.274,1.013 -4.942,2.328 -3.724,2.936 1.219,0.609 4.862,0.283 8.136,-0.73 0.368,-0.114 0.713,-0.23 1.037,-0.349 -0.09,0.17 -0.164,0.346 -0.22,0.527 -0.494,1.628 0.69,3.021 2.647,3.113 1.957,0.093 3.945,-1.151 4.44,-2.779 0.054,-0.181 0.089,-0.36 0.104,-0.533 0.242,0.143 0.51,0.289 0.797,0.435 2.576,1.285 5.919,1.941 7.47,1.464 C 7.804,8.034 6.973,6.603 4.397,5.315 4.107,5.172 3.811,5.035 3.507,4.907 3.94,4.942 4.393,4.973 4.854,4.996 8.992,5.19 12.535,4.722 12.77,3.953 13.003,3.184 9.839,2.402 5.701,2.209 5.239,2.188 4.784,2.173 4.34,2.167 4.711,2.071 5.082,1.968 5.449,1.854 8.724,0.844 10.392,-0.472 9.173,-1.079 7.955,-1.69 4.311,-1.362 1.037,-0.349 0.67,-0.235 0.324,-0.119 0,0"
         style="fill:#ffffff;fill-opacity:1;fill-rule:evenodd;stroke:none"
         transform="matrix(1.3333333,0,0,-1.3333333,524.4232,849.7552)"
         clip-path="url(#clipPath98)" />
      <path
         id="path99"
         d="M 0,0 C 3.158,0.149 6.024,-0.736 6.403,-1.977 6.78,-3.22 4.525,-4.347 1.366,-4.495 -1.792,-4.642 -4.658,-3.756 -5.037,-2.516 -5.414,-1.272 -3.16,-0.146 0,0"
         style="fill:#f9de1c;fill-opacity:1;fill-rule:evenodd;stroke:none"
         transform="matrix(1.3333333,0,0,-1.3333333,517.5248,842.56907)"
         clip-path="url(#clipPath100)" />
      <path
         id="path101"
         d="m 0,0 c 0.152,-0.287 0.274,-0.582 0.366,-0.883 0.824,-2.707 -1.15,-5.023 -4.405,-5.179 -3.259,-0.151 -6.565,1.917 -7.388,4.625 -0.091,0.304 -0.148,0.599 -0.173,0.891 -0.405,-0.244 -0.849,-0.486 -1.326,-0.725 -4.29,-2.143 -9.856,-3.234 -12.431,-2.435 -2.579,0.796 -1.196,3.178 3.091,5.321 0.48,0.239 0.975,0.465 1.482,0.677 -0.725,-0.06 -1.473,-0.107 -2.245,-0.143 -6.884,-0.325 -12.784,0.45 -13.171,1.732 -0.391,1.279 4.878,2.579 11.761,2.903 0.772,0.036 1.529,0.057 2.265,0.07 -0.617,0.157 -1.234,0.331 -1.842,0.521 -5.453,1.685 -8.228,3.869 -6.201,4.883 2.031,1.013 8.091,0.471 13.543,-1.216 0.609,-0.188 1.184,-0.382 1.724,-0.582 -0.15,0.286 -0.272,0.582 -0.364,0.883 -0.823,2.707 1.148,5.023 4.406,5.178 3.256,0.152 6.564,-1.916 7.387,-4.624 0.092,-0.304 0.149,-0.599 0.173,-0.891 0.406,0.244 0.85,0.486 1.327,0.724 4.29,2.144 9.852,3.235 12.431,2.439 C 12.989,13.37 11.606,10.988 7.318,8.845 6.839,8.606 6.344,8.38 5.837,8.168 6.562,8.228 7.31,8.275 8.082,8.311 14.965,8.636 20.865,7.86 21.253,6.579 21.643,5.3 16.375,4 9.489,3.676 8.72,3.64 7.963,3.619 7.224,3.609 7.844,3.449 8.46,3.275 9.068,3.088 14.521,1.4 17.297,-0.784 15.267,-1.798 13.239,-2.812 7.179,-2.27 1.726,-0.582 1.118,-0.394 0.54,-0.2 0,0"
         style="fill:#ffffff;fill-opacity:1;fill-rule:evenodd;stroke:none"
         transform="matrix(1.3333333,0,0,-1.3333333,757.04813,854.07547)"
         clip-path="url(#clipPath102)" />
      <path
         id="path103"
         d="M 0,0 C 5.259,0.247 10.028,-1.226 10.657,-3.291 11.286,-5.36 7.533,-7.235 2.277,-7.479 -2.981,-7.727 -7.751,-6.254 -8.38,-4.188 -9.009,-2.119 -5.256,-0.244 0,0"
         style="fill:#f9de1c;fill-opacity:1;fill-rule:evenodd;stroke:none"
         transform="matrix(1.3333333,0,0,-1.3333333,745.56507,842.11587)"
         clip-path="url(#clipPath104)" />
      <path
         id="path105"
         d="m 0,0 c 0.076,-0.144 0.137,-0.289 0.185,-0.441 0.413,-1.36 -0.579,-2.525 -2.215,-2.603 -1.637,-0.077 -3.297,0.963 -3.711,2.322 -0.045,0.153 -0.075,0.302 -0.087,0.448 -0.203,-0.122 -0.426,-0.242 -0.668,-0.364 -2.152,-1.076 -4.948,-1.625 -6.244,-1.222 -1.295,0.399 -0.6,1.594 1.555,2.673 0.242,0.12 0.489,0.233 0.742,0.34 -0.364,-0.029 -0.739,-0.053 -1.126,-0.071 -3.459,-0.164 -6.422,0.227 -6.619,0.867 -0.193,0.645 2.451,1.297 5.912,1.461 0.386,0.019 0.766,0.03 1.137,0.033 -0.311,0.08 -0.62,0.167 -0.927,0.262 -2.738,0.847 -4.133,1.944 -3.114,2.454 1.02,0.51 4.065,0.235 6.803,-0.611 0.307,-0.093 0.596,-0.191 0.866,-0.292 -0.076,0.142 -0.137,0.292 -0.183,0.444 -0.414,1.36 0.578,2.525 2.214,2.6 1.636,0.077 3.298,-0.963 3.711,-2.322 0.046,-0.153 0.075,-0.302 0.088,-0.448 0.202,0.122 0.426,0.244 0.666,0.364 C 1.139,6.97 3.936,7.519 5.229,7.119 6.526,6.72 5.828,5.52 3.676,4.444 3.435,4.325 3.186,4.212 2.932,4.104 3.296,4.135 3.673,4.158 4.059,4.177 7.519,4.338 10.482,3.95 10.676,3.306 10.873,2.665 8.227,2.009 4.767,1.849 4.379,1.83 4.001,1.818 3.628,1.812 3.938,1.735 4.249,1.646 4.555,1.553 7.293,0.706 8.688,-0.394 7.669,-0.903 6.651,-1.41 3.604,-1.139 0.868,-0.292 0.561,-0.197 0.271,-0.099 0,0"
         style="fill:#ffffff;fill-opacity:1;fill-rule:evenodd;stroke:none"
         transform="matrix(1.3333333,0,0,-1.3333333,357.48693,839.862)"
         clip-path="url(#clipPath106)" />
      <path
         id="path107"
         d="M 0,0 C 2.642,0.125 5.039,-0.617 5.354,-1.655 5.67,-2.692 3.785,-3.635 1.143,-3.76 -1.498,-3.882 -3.895,-3.143 -4.211,-2.105 -4.526,-1.064 -2.641,-0.123 0,0"
         style="fill:#f9de1c;fill-opacity:1;fill-rule:evenodd;stroke:none"
         transform="matrix(1.3333333,0,0,-1.3333333,351.71747,833.8516)"
         clip-path="url(#clipPath108)" />
      <path
         id="path109"
         d="m 0,0 c 0.062,-0.119 0.116,-0.244 0.155,-0.373 0.349,-1.145 -0.487,-2.128 -1.868,-2.193 -1.378,-0.065 -2.781,0.812 -3.128,1.958 -0.041,0.129 -0.064,0.254 -0.075,0.379 -0.171,-0.103 -0.359,-0.207 -0.562,-0.307 -1.817,-0.908 -4.175,-1.37 -5.266,-1.033 -1.094,0.337 -0.507,1.347 1.31,2.255 0.203,0.101 0.413,0.197 0.628,0.286 -0.307,-0.026 -0.626,-0.045 -0.951,-0.06 -2.917,-0.137 -5.417,0.192 -5.581,0.734 -0.165,0.543 2.066,1.092 4.983,1.229 0.327,0.016 0.647,0.025 0.96,0.028 -0.261,0.07 -0.523,0.142 -0.781,0.223 -2.309,0.714 -3.487,1.64 -2.627,2.068 0.861,0.43 3.429,0.201 5.738,-0.513 0.259,-0.081 0.502,-0.163 0.73,-0.248 -0.062,0.121 -0.116,0.246 -0.155,0.374 -0.349,1.146 0.488,2.129 1.868,2.194 1.378,0.064 2.781,-0.812 3.13,-1.96 0.039,-0.128 0.062,-0.253 0.073,-0.377 0.172,0.103 0.36,0.206 0.562,0.307 C 0.96,5.879 3.318,6.341 4.409,6.004 5.503,5.666 4.916,4.656 3.099,3.749 2.896,3.648 2.686,3.552 2.471,3.461 2.778,3.486 3.097,3.508 3.422,3.523 6.339,3.659 8.839,3.331 9.003,2.789 9.169,2.246 6.937,1.696 4.02,1.56 3.693,1.543 3.372,1.534 3.06,1.529 3.321,1.462 3.584,1.39 3.843,1.309 6.15,0.595 7.328,-0.332 6.468,-0.762 5.609,-1.191 3.041,-0.96 0.73,-0.246 0.471,-0.165 0.228,-0.083 0,0"
         style="fill:#ffffff;fill-opacity:1;fill-rule:evenodd;stroke:none"
         transform="matrix(1.3333333,0,0,-1.3333333,355.2812,652.51693)"
         clip-path="url(#clipPath110)" />
      <path
         id="path111"
         d="M 0,0 C 2.227,0.105 4.248,-0.52 4.515,-1.395 4.782,-2.271 3.191,-3.066 0.963,-3.171 -1.264,-3.275 -3.285,-2.65 -3.55,-1.775 -3.817,-0.9 -2.229,-0.104 0,0"
         style="fill:#f9de1c;fill-opacity:1;fill-rule:evenodd;stroke:none"
         transform="matrix(1.3333333,0,0,-1.3333333,350.416,647.44667)"
         clip-path="url(#clipPath112)" />
      <path
         id="path113"
         d="m 0,98.49 h 659.998 v 3.715 H 0 Z"
         style="fill:#e2d6d2;fill-opacity:1;fill-rule:evenodd;stroke:none"
         transform="matrix(1.3333333,0,0,-1.3333333,0,880)"
         clip-path="url(#clipPath114)" />
    </g>
  </g>
</svg>
