<svg
   width="880"
   height="880"
   viewBox="0 0 880 880">
  <defs
     id="defs1">
    <clipPath
       clipPathUnits="userSpaceOnUse"
       id="clipPath12">
      <path
         d="M 0,660 H 660 V 0 H 0 Z"
         transform="translate(-329.21291,-190.4043)"
         id="path12" />
    </clipPath>
    <clipPath
       clipPathUnits="userSpaceOnUse"
       id="clipPath14">
      <path
         d="M 0,660 H 660 V 0 H 0 Z"
         transform="translate(-526.60061,-229.6162)"
         id="path14" />
    </clipPath>
    <clipPath
       clipPathUnits="userSpaceOnUse"
       id="clipPath16">
      <path
         d="M 0,660 H 660 V 0 H 0 Z"
         transform="translate(-526.60061,-229.6162)"
         id="path16" />
    </clipPath>
    <clipPath
       clipPathUnits="userSpaceOnUse"
       id="clipPath18">
      <path
         d="M 0,660 H 660 V 0 H 0 Z"
         transform="translate(-518.71091,-297.33981)"
         id="path18" />
    </clipPath>
    <clipPath
       clipPathUnits="userSpaceOnUse"
       id="clipPath20">
      <path
         d="M 0,660 H 660 V 0 H 0 Z"
         transform="translate(-499.33501,-155.12601)"
         id="path20" />
    </clipPath>
    <clipPath
       clipPathUnits="userSpaceOnUse"
       id="clipPath22">
      <path
         d="M 0,660 H 660 V 0 H 0 Z"
         transform="translate(-509.72752,-216.43261)"
         id="path22" />
    </clipPath>
    <clipPath
       clipPathUnits="userSpaceOnUse"
       id="clipPath24">
      <path
         d="M 0,660 H 660 V 0 H 0 Z"
         transform="translate(-497.31541,-248.53911)"
         id="path24" />
    </clipPath>
    <clipPath
       clipPathUnits="userSpaceOnUse"
       id="clipPath26">
      <path
         d="M 0,660 H 660 V 0 H 0 Z"
         transform="translate(-524.44342,-245.25001)"
         id="path26" />
    </clipPath>
    <clipPath
       clipPathUnits="userSpaceOnUse"
       id="clipPath28">
      <path
         d="M 0,660 H 660 V 0 H 0 Z"
         transform="translate(-329.21291,-190.4043)"
         id="path28" />
    </clipPath>
    <clipPath
       clipPathUnits="userSpaceOnUse"
       id="clipPath30">
      <path
         d="M 0,660 H 660 V 0 H 0 Z"
         transform="translate(-233.1172,-380.07131)"
         id="path30" />
    </clipPath>
    <clipPath
       clipPathUnits="userSpaceOnUse"
       id="clipPath32">
      <path
         d="M 0,660 H 660 V 0 H 0 Z"
         transform="translate(-233.1172,-380.07131)"
         id="path32" />
    </clipPath>
    <clipPath
       clipPathUnits="userSpaceOnUse"
       id="clipPath34">
      <path
         d="M 0,660 H 660 V 0 H 0 Z"
         transform="translate(-360.64941,-185.9287)"
         id="path34" />
    </clipPath>
    <clipPath
       clipPathUnits="userSpaceOnUse"
       id="clipPath36">
      <path
         d="M 0,660 H 660 V 0 H 0 Z"
         transform="translate(-360.64941,-185.9287)"
         id="path36" />
    </clipPath>
    <clipPath
       clipPathUnits="userSpaceOnUse"
       id="clipPath38">
      <path
         d="M 0,660 H 660 V 0 H 0 Z"
         transform="translate(-349.47071,-281.86821)"
         id="path38" />
    </clipPath>
    <clipPath
       clipPathUnits="userSpaceOnUse"
       id="clipPath40">
      <path
         d="M 0,660 H 660 V 0 H 0 Z"
         transform="translate(-322.02151,-80.4004)"
         id="path40" />
    </clipPath>
    <clipPath
       clipPathUnits="userSpaceOnUse"
       id="clipPath42">
      <path
         d="M 0,660 H 660 V 0 H 0 Z"
         transform="translate(-336.74321,-167.25291)"
         id="path42" />
    </clipPath>
    <clipPath
       clipPathUnits="userSpaceOnUse"
       id="clipPath44">
      <path
         d="M 0,660 H 660 V 0 H 0 Z"
         transform="translate(-319.15971,-212.73631)"
         id="path44" />
    </clipPath>
    <clipPath
       clipPathUnits="userSpaceOnUse"
       id="clipPath46">
      <path
         d="M 0,660 H 660 V 0 H 0 Z"
         transform="translate(-357.59281,-208.07421)"
         id="path46" />
    </clipPath>
    <clipPath
       clipPathUnits="userSpaceOnUse"
       id="clipPath48">
      <path
         d="M 0,660 H 660 V 0 H 0 Z"
         transform="translate(-167.86131,-218.91211)"
         id="path48" />
    </clipPath>
    <clipPath
       clipPathUnits="userSpaceOnUse"
       id="clipPath50">
      <path
         d="M 0,660 H 660 V 0 H 0 Z"
         transform="translate(-167.86131,-218.91211)"
         id="path50" />
    </clipPath>
    <clipPath
       clipPathUnits="userSpaceOnUse"
       id="clipPath52">
      <path
         d="M 0,660 H 660 V 0 H 0 Z"
         transform="translate(-158.38041,-300.28221)"
         id="path52" />
    </clipPath>
    <clipPath
       clipPathUnits="userSpaceOnUse"
       id="clipPath54">
      <path
         d="M 0,660 H 660 V 0 H 0 Z"
         transform="translate(-135.10011,-129.4092)"
         id="path54" />
    </clipPath>
    <clipPath
       clipPathUnits="userSpaceOnUse"
       id="clipPath56">
      <path
         d="M 0,660 H 660 V 0 H 0 Z"
         transform="translate(-147.58641,-203.07231)"
         id="path56" />
    </clipPath>
    <clipPath
       clipPathUnits="userSpaceOnUse"
       id="clipPath58">
      <path
         d="M 0,660 H 660 V 0 H 0 Z"
         transform="translate(-132.6724,-241.64841)"
         id="path58" />
    </clipPath>
    <clipPath
       clipPathUnits="userSpaceOnUse"
       id="clipPath60">
      <path
         d="M 0,660 H 660 V 0 H 0 Z"
         transform="translate(-165.2671,-237.69531)"
         id="path60" />
    </clipPath>
    <clipPath
       clipPathUnits="userSpaceOnUse"
       id="clipPath62">
      <path
         d="M 0,660 H 660 V 0 H 0 Z"
         transform="translate(-70.358402,-611.65582)"
         id="path62" />
    </clipPath>
    <clipPath
       clipPathUnits="userSpaceOnUse"
       id="clipPath64">
      <path
         d="M 0,660 H 660 V 0 H 0 Z"
         transform="translate(-107.2744,-610.53522)"
         id="path64" />
    </clipPath>
    <clipPath
       clipPathUnits="userSpaceOnUse"
       id="clipPath66">
      <path
         d="M 0,660 H 660 V 0 H 0 Z"
         transform="translate(-316.23491,-556.54441)"
         id="path66" />
    </clipPath>
    <clipPath
       clipPathUnits="userSpaceOnUse"
       id="clipPath68">
      <path
         d="M 0,660 H 660 V 0 H 0 Z"
         transform="translate(-362.63481,-550.05571)"
         id="path68" />
    </clipPath>
    <clipPath
       clipPathUnits="userSpaceOnUse"
       id="clipPath70">
      <path
         d="M 0,660 H 660 V 0 H 0 Z"
         transform="translate(-177.021,-508.52831)"
         id="path70" />
    </clipPath>
    <clipPath
       clipPathUnits="userSpaceOnUse"
       id="clipPath72">
      <path
         d="M 0,660 H 660 V 0 H 0 Z"
         transform="translate(-214.86771,-493.45211)"
         id="path72" />
    </clipPath>
    <clipPath
       clipPathUnits="userSpaceOnUse"
       id="clipPath74">
      <path
         d="M 0,660 H 660 V 0 H 0 Z"
         transform="translate(-431.63481,-450.18801)"
         id="path74" />
    </clipPath>
    <clipPath
       clipPathUnits="userSpaceOnUse"
       id="clipPath76">
      <path
         d="M 0,660 H 660 V 0 H 0 Z"
         transform="translate(-448.31841,-449.68261)"
         id="path76" />
    </clipPath>
    <clipPath
       clipPathUnits="userSpaceOnUse"
       id="clipPath78">
      <path
         d="M 0,660 H 660 V 0 H 0 Z"
         transform="translate(-557.71882,-610.57372)"
         id="path78" />
    </clipPath>
    <clipPath
       clipPathUnits="userSpaceOnUse"
       id="clipPath80">
      <path
         d="M 0,660 H 660 V 0 H 0 Z"
         transform="translate(-529.92481,-599.50241)"
         id="path80" />
    </clipPath>
  </defs>
  <sodipodi:namedview
     id="namedview1"
     pagecolor="#ffffff"
     bordercolor="#000000"
     borderopacity="0.25"
     inkscape:showpageshadow="2"
     inkscape:pageopacity="0.0"
     inkscape:pagecheckerboard="0"
     inkscape:deskcolor="#d1d1d1"
     inkscape:zoom="0.67272727"
     inkscape:cx="439.25676"
     inkscape:cy="440"
     inkscape:window-width="1440"
     inkscape:window-height="830"
     inkscape:window-x="-6"
     inkscape:window-y="-6"
     inkscape:window-maximized="1"
     inkscape:current-layer="g1">
    <inkscape:page
       x="0"
       y="0"
       inkscape:label="1"
       id="page1"
       width="880"
       height="880"
       margin="0.39971867 2.1040001 1.7053334 0"
       bleed="0" />
  </sodipodi:namedview>
  <g
     id="g1"
     inkscape:groupmode="layer"
     inkscape:label="1">
    <g
       id="group-MC0">
      <path
         id="path2"
         d="M 0,0.3 H 658.422 V 658.721 H 0 Z"
         style="fill:#f3f8c7;fill-opacity:1;fill-rule:nonzero;stroke:none"
         transform="matrix(1.3333333,0,0,-1.3333333,0,880)" />
      <path
         id="path3"
         d="M 0,0 H 8.829 V 25.438 H 58.254 V 0 h 23.829 v -53.189 h 22.065 v 33.146 h 19.417 v 17.73 h 22.95 v 23.125 h 22.947 v -40.855 h 12.357 V -53.96 h 37.068 V 6.937 h 10.59 v 26.209 h 36.19 V 6.937 h 21.182 v -83.253 h 38.833 v 10.793 h 11.475 v 46.252 h 31.773 v -15.417 h 7.062 v -30.835 h 23.829 v -22.356 h 17.652 v 50.107 h 15.888 v 27.751 h 16.77 v 30.063 h 30.009 v -30.063 h 16.768 v -295.214 h -36.187 v -17.756 H 368.93 v 21.585 h -43.248 v 20.043 h -38.833 v -4.626 h -37.953 v -2.313 h -67.077 v -37.772 h -77.671 v 52.93 H 82.083 v -46.761 H 24.714 0 -26.477 v 179.609 H 0 Z"
         style="fill:#d2e491;fill-opacity:1;fill-rule:evenodd;stroke:none"
         transform="matrix(1.3333333,0,0,-1.3333333,117.62307,344.0364)" />
      <path
         id="path4"
         d="M 0,0 H -6.267 V -18.062 H -41.363 V 0 H -58.286 V 37.77 H -73.953 V 14.23 H -87.74 V 1.644 h -16.297 V -14.778 H -120.33 V 14.23 h -8.774 v 24.085 h -26.32 V -4.924 h -7.522 v -18.612 h -25.697 v 18.612 h -15.04 v 59.113 h -27.576 v -7.663 h -8.148 V 13.684 h -22.562 v 10.947 h -5.013 v 21.895 h -16.92 V 62.4 h -12.535 V 26.82 H -307.72 V 7.114 h -11.905 v -21.346 h -21.31 V 7.114 h -11.909 V 216.74 h 25.697 v 12.608 h 65.178 v -15.326 h 30.71 V 199.79 h 27.576 v 3.284 h 26.949 v 1.642 h 47.63 v 26.822 h 55.151 v -37.586 h 15.667 v 33.207 H 18.801 V 23.718 L 0,23.718 Z"
         style="fill:#bfd376;fill-opacity:1;fill-rule:evenodd;stroke:none"
         transform="matrix(1.3333333,0,0,-1.3333333,668.05987,727.42053)" />
      <path
         id="path5"
         d="m 0,0 13.333,-59.883 -10.219,4.954 11.463,-10.547 6.508,-29.233 1.152,-5.171 -15.161,11.544 17.422,-21.697 9.705,-43.591 -8.44,2.431 9.455,-6.982 6.955,-31.241 H 0 -42.177 l 4.517,20.283 10.76,12.275 -9.048,-4.592 10.406,46.742 15.063,23.539 -11.233,-6.332 0.623,2.792 8.86,39.802 7.414,13.57 -5.035,-2.892 z"
         style="fill:#549d34;fill-opacity:1;fill-rule:evenodd;stroke:none"
         transform="matrix(1.3333333,0,0,-1.3333333,762.3424,494.43227)" />
      <path
         id="path6"
         d="m 0,0 13.333,-59.883 -10.219,4.954 11.463,-10.547 6.508,-29.233 1.152,-5.171 -15.161,11.544 17.422,-21.697 9.705,-43.591 -8.44,2.431 9.455,-6.982 6.955,-31.241 H 8.208 Z"
         style="fill:#448733;fill-opacity:1;fill-rule:evenodd;stroke:none"
         transform="matrix(1.3333333,0,0,-1.3333333,762.3424,494.43227)" />
      <path
         id="path7"
         d="m 0,0 7.803,-35.035 -5.978,2.898 6.705,-6.171 3.81,-17.106 0.672,-3.022 -8.869,6.751 10.194,-12.693 5.677,-25.501 -4.939,1.419 5.531,-4.083 4.071,-18.281 H 0 -24.672 l 2.642,11.869 6.295,7.183 -5.296,-2.687 6.091,27.346 8.812,13.773 -6.571,-3.706 0.362,1.632 5.186,23.289 4.336,7.939 -2.945,-1.693 z"
         style="fill:#549d34;fill-opacity:1;fill-rule:evenodd;stroke:none"
         transform="matrix(1.3333333,0,0,-1.3333333,131.94987,574.55987)" />
      <path
         id="path8"
         d="m 0,0 7.803,-35.035 -5.978,2.898 6.705,-6.171 3.81,-17.106 0.672,-3.022 -8.869,6.751 10.194,-12.693 5.677,-25.501 -4.939,1.419 5.531,-4.083 4.071,-18.281 H 4.804 Z"
         style="fill:#448733;fill-opacity:1;fill-rule:evenodd;stroke:none"
         transform="matrix(1.3333333,0,0,-1.3333333,131.94987,574.55987)" />
      <path
         id="path9"
         d="m 0,0 11.288,-50.695 -8.651,4.195 9.706,-8.93 5.509,-24.749 0.975,-4.375 -12.834,9.77 14.747,-18.366 8.217,-36.903 -7.146,2.054 8.002,-5.907 5.89,-26.449 H 0 -35.704 l 3.824,17.171 9.107,10.393 -7.659,-3.888 8.809,39.572 12.754,19.925 -9.51,-5.359 0.525,2.362 7.505,33.696 6.275,11.488 -4.264,-2.448 z"
         style="fill:#549d34;fill-opacity:1;fill-rule:evenodd;stroke:none"
         transform="matrix(1.3333333,0,0,-1.3333333,581.38933,443.62493)" />
      <path
         id="path10"
         d="m 0,0 11.288,-50.695 -8.651,4.195 9.706,-8.93 5.509,-24.749 0.975,-4.375 -12.834,9.77 14.747,-18.366 8.217,-36.903 -7.146,2.054 8.002,-5.907 5.89,-26.449 H 6.949 Z"
         style="fill:#448733;fill-opacity:1;fill-rule:evenodd;stroke:none"
         transform="matrix(1.3333333,0,0,-1.3333333,581.38933,443.62493)" />
      <path
         id="path11"
         d="M 0,0 C 153.82,0 281.718,-53.95 308.006,-125.047 H -308.007 C -281.718,-53.95 -153.821,0 0,0"
         style="fill:#adda1a;fill-opacity:1;fill-rule:evenodd;stroke:none"
         transform="matrix(1.3333333,0,0,-1.3333333,438.95053,626.1276)"
         clip-path="url(#clipPath12)" />
      <path
         id="path13"
         d="m 0,0 c -0.891,-12.624 -11.415,-22.588 -24.266,-22.588 -13.437,0 -24.332,10.892 -24.332,24.329 0,1.782 0.193,3.518 0.558,5.192 -9.021,3.281 -15.466,11.93 -15.466,22.085 0,5.794 2.1,11.098 5.576,15.196 -7.548,4.456 -12.609,12.671 -12.609,22.069 0,14.144 11.466,25.611 25.613,25.611 4.818,0 9.328,-1.333 13.179,-3.65 2.746,8.015 10.349,13.775 19.295,13.775 11.262,0 20.393,-9.13 20.393,-20.393 0,-5.057 -1.841,-9.684 -4.89,-13.247 3.678,-2.321 6.752,-5.514 8.929,-9.292 3.339,3.689 8.163,6.005 13.527,6.005 10.076,0 18.244,-8.168 18.244,-18.244 0,-8.632 -5.996,-15.864 -14.049,-17.758 1.197,-2.732 1.864,-5.751 1.864,-8.924 C 31.566,7.893 21.62,-2.056 9.346,-2.056 6.008,-2.056 2.842,-1.319 0,0"
         style="fill:#9ac421;fill-opacity:1;fill-rule:evenodd;stroke:none"
         transform="matrix(1.3333333,0,0,-1.3333333,702.13413,573.84507)"
         clip-path="url(#clipPath14)" />
      <path
         id="path15"
         d="m 0,0 c -0.891,-12.624 -11.415,-22.588 -24.266,-22.588 -13.437,0 -24.332,10.892 -24.332,24.329 0,1.782 0.193,3.518 0.558,5.192 -9.021,3.281 -15.466,11.93 -15.466,22.085 0,5.794 2.1,11.098 5.576,15.196 -5.576,-15.196 11.941,-28.221 23.818,-16.594 0.56,-23.535 41.209,-18.238 36.287,2.813 5.812,-8.159 19.221,-4.08 20.812,4.639 13.578,0.631 20.764,11.776 15.42,24.676 3.304,-3.301 5.344,-7.862 5.344,-12.9 0,-8.632 -5.996,-15.864 -14.049,-17.758 1.197,-2.732 1.864,-5.751 1.864,-8.924 C 31.566,7.893 21.62,-2.056 9.346,-2.056 6.008,-2.056 2.842,-1.319 0,0"
         style="fill:#769a2a;fill-opacity:1;fill-rule:evenodd;stroke:none"
         transform="matrix(1.3333333,0,0,-1.3333333,702.13413,573.84507)"
         clip-path="url(#clipPath16)" />
      <path
         id="path17"
         d="m 0,0 c -6.872,-0.872 -12.443,-6.252 -12.443,-12.017 0,-5.767 5.571,-9.735 12.443,-8.863 6.873,0.87 12.446,6.252 12.446,12.017 C 12.446,-3.098 6.873,0.87 0,0 m -6.188,31.363 c -6.872,-0.871 -12.444,-6.253 -12.444,-12.017 0,-5.765 5.572,-9.734 12.444,-8.863 6.872,0.872 12.446,6.252 12.446,12.017 0,5.767 -5.574,9.734 -12.446,8.863 m -33.61,-11.076 c -8.817,-1.119 -15.965,-8.022 -15.965,-15.417 0,-7.398 7.148,-12.488 15.965,-11.37 8.818,1.117 15.966,8.02 15.966,15.417 0,7.397 -7.148,12.487 -15.966,11.37 m 2.379,-36.804 c -5.999,-0.76 -10.862,-5.458 -10.862,-10.49 0,-5.033 4.863,-8.495 10.862,-7.735 5.999,0.76 10.863,5.457 10.863,10.489 0,5.033 -4.864,8.497 -10.863,7.736 M 30.09,-5.265 c -5.999,-0.759 -10.863,-5.458 -10.863,-10.491 0,-5.032 4.864,-8.496 10.863,-7.735 5.999,0.761 10.863,5.457 10.863,10.489 0,5.033 -4.864,8.497 -10.863,7.737"
         style="fill:#adda1a;fill-opacity:1;fill-rule:evenodd;stroke:none"
         transform="matrix(1.3333333,0,0,-1.3333333,691.61453,483.54693)"
         clip-path="url(#clipPath18)" />
      <path
         id="path19"
         d="M 0,0 C 12.357,56.151 3.858,98.282 -27.521,125.034 5.551,102.166 20.953,60.156 19.608,0 Z"
         style="fill:#7e2b1a;fill-opacity:1;fill-rule:evenodd;stroke:none"
         transform="matrix(1.3333333,0,0,-1.3333333,665.78,673.16533)"
         clip-path="url(#clipPath20)" />
      <path
         id="path21"
         d="M 0,0 C 4.137,24.019 17.192,39.44 41.409,44.099 17.106,35.356 5.065,11.547 6.665,-16.826 5.946,-11.18 0.715,-5.646 0,0"
         style="fill:#7e2b1a;fill-opacity:1;fill-rule:evenodd;stroke:none"
         transform="matrix(1.3333333,0,0,-1.3333333,679.63667,591.4232)"
         clip-path="url(#clipPath22)" />
      <path
         id="path23"
         d="M 0,0 C -1.29,13.598 3.505,23.855 15.917,29.932 4.06,21.633 1.043,6.989 6.076,-8.119 4.858,-5.171 1.218,-2.947 0,0"
         style="fill:#7e2b1a;fill-opacity:1;fill-rule:evenodd;stroke:none"
         transform="matrix(1.3333333,0,0,-1.3333333,663.0872,548.61453)"
         clip-path="url(#clipPath24)" />
      <path
         id="path25"
         d="M 0,0 C 2.209,7.635 0.574,14.021 -5.864,18.836 0.02,12.81 0.16,4.109 -4.351,-3.986 -3.336,-2.433 -1.015,-1.555 0,0"
         style="fill:#7e2b1a;fill-opacity:1;fill-rule:evenodd;stroke:none"
         transform="matrix(1.3333333,0,0,-1.3333333,699.25787,553)"
         clip-path="url(#clipPath26)" />
      <path
         id="path27"
         d="M 0,0 C 32.414,0 63.667,-2.404 93.069,-6.852 -51.233,-9.131 -170.835,-58.895 -201.755,-125.047 H -308.007 C -281.718,-53.95 -153.821,0 0,0"
         style="fill:#9ac421;fill-opacity:1;fill-rule:evenodd;stroke:none"
         transform="matrix(1.3333333,0,0,-1.3333333,438.95053,626.1276)"
         clip-path="url(#clipPath28)" />
      <path
         id="path29"
         d="m 0,0 15.205,-68.288 -11.654,5.649 13.073,-12.028 7.424,-33.337 1.313,-5.894 -17.288,13.158 19.865,-24.739 11.07,-49.707 -9.625,2.766 10.78,-7.958 7.932,-35.629 H 0 -48.095 l 5.149,23.131 12.273,14 -10.32,-5.24 11.866,53.306 17.181,26.842 -12.808,-7.221 0.707,3.185 10.107,45.389 8.453,15.473 -5.743,-3.297 z"
         style="fill:#549d34;fill-opacity:1;fill-rule:evenodd;stroke:none"
         transform="matrix(1.3333333,0,0,-1.3333333,310.82293,373.23827)"
         clip-path="url(#clipPath30)" />
      <path
         id="path31"
         d="m 0,0 15.205,-68.288 -11.654,5.649 13.073,-12.028 7.424,-33.337 1.313,-5.894 -17.288,13.158 19.865,-24.739 11.07,-49.707 -9.625,2.766 10.78,-7.958 7.932,-35.629 H 9.363 Z"
         style="fill:#448733;fill-opacity:1;fill-rule:evenodd;stroke:none"
         transform="matrix(1.3333333,0,0,-1.3333333,310.82293,373.23827)"
         clip-path="url(#clipPath32)" />
      <path
         id="path33"
         d="m 0,0 c -1.264,-17.886 -16.172,-32.004 -34.382,-32.004 -19.036,0 -34.468,15.432 -34.468,34.469 0,2.525 0.273,4.984 0.79,7.354 -12.782,4.65 -21.91,16.902 -21.91,31.289 0,8.21 2.974,15.724 7.901,21.527 -10.69,6.313 -17.865,17.95 -17.865,31.263 0,20.039 16.245,36.283 36.285,36.283 6.829,0 13.218,-1.889 18.671,-5.17 3.893,11.354 14.659,19.515 27.335,19.515 15.954,0 28.888,-12.934 28.888,-28.89 0,-7.164 -2.608,-13.719 -6.927,-18.767 5.212,-3.288 9.568,-7.811 12.651,-13.163 4.728,5.225 11.563,8.507 19.163,8.507 14.276,0 25.846,-11.572 25.846,-25.847 0,-12.229 -8.493,-22.473 -19.902,-25.158 1.698,-3.869 2.644,-8.145 2.644,-12.642 0,-17.384 -14.096,-31.48 -31.481,-31.48 C 8.508,-2.914 4.022,-1.868 0,0"
         style="fill:#9ac421;fill-opacity:1;fill-rule:evenodd;stroke:none"
         transform="matrix(1.3333333,0,0,-1.3333333,480.86587,632.09507)"
         clip-path="url(#clipPath34)" />
      <path
         id="path35"
         d="m 0,0 c -1.264,-17.886 -16.172,-32.004 -34.382,-32.004 -19.036,0 -34.468,15.432 -34.468,34.469 0,2.525 0.273,4.984 0.79,7.354 -12.782,4.65 -21.91,16.902 -21.91,31.289 0,8.21 2.974,15.724 7.901,21.527 -7.901,-21.527 16.917,-39.979 33.741,-23.509 0.796,-33.34 58.378,-25.836 51.405,3.983 8.234,-11.554 27.232,-5.775 29.489,6.577 19.236,0.894 29.412,16.68 21.844,34.957 4.675,-4.677 7.568,-11.139 7.568,-18.277 0,-12.229 -8.493,-22.473 -19.902,-25.158 1.698,-3.869 2.644,-8.145 2.644,-12.642 0,-17.384 -14.096,-31.48 -31.481,-31.48 C 8.508,-2.914 4.022,-1.868 0,0"
         style="fill:#769a2a;fill-opacity:1;fill-rule:evenodd;stroke:none"
         transform="matrix(1.3333333,0,0,-1.3333333,480.86587,632.09507)"
         clip-path="url(#clipPath36)" />
      <path
         id="path37"
         d="m 0,0 c -9.734,-1.233 -17.629,-8.857 -17.629,-17.024 0,-8.168 7.895,-13.79 17.629,-12.554 9.736,1.234 17.629,8.854 17.629,17.023 C 17.629,-4.387 9.736,1.234 0,0 m -8.766,44.433 c -9.736,-1.237 -17.632,-8.859 -17.632,-17.025 0,-8.17 7.896,-13.79 17.632,-12.555 9.737,1.234 17.629,8.856 17.629,17.024 0,8.168 -7.892,13.789 -17.629,12.556 M -56.381,28.739 C -68.87,27.156 -78.998,17.378 -78.998,6.898 c 0,-10.477 10.128,-17.69 22.617,-16.106 12.492,1.583 22.617,11.361 22.617,21.841 0,10.478 -10.125,17.691 -22.617,16.106 m 3.37,-52.137 c -8.498,-1.078 -15.391,-7.73 -15.391,-14.861 0,-7.13 6.893,-12.037 15.391,-10.959 8.501,1.077 15.391,7.732 15.391,14.861 0,7.129 -6.89,12.037 -15.391,10.959 m 95.639,15.94 c -8.502,-1.077 -15.392,-7.732 -15.392,-14.859 0,-7.131 6.89,-12.038 15.392,-10.961 8.498,1.077 15.388,7.731 15.388,14.86 0,7.13 -6.89,12.037 -15.388,10.96"
         style="fill:#adda1a;fill-opacity:1;fill-rule:evenodd;stroke:none"
         transform="matrix(1.3333333,0,0,-1.3333333,465.96093,504.17573)"
         clip-path="url(#clipPath38)" />
      <path
         id="path39"
         d="M 0,0 C 17.508,79.547 5.464,139.231 -38.99,177.132 7.86,144.733 29.685,85.221 27.779,0 Z"
         style="fill:#7e2b1a;fill-opacity:1;fill-rule:evenodd;stroke:none"
         transform="matrix(1.3333333,0,0,-1.3333333,429.362,772.79947)"
         clip-path="url(#clipPath40)" />
      <path
         id="path41"
         d="M 0,0 C 5.86,34.023 24.357,55.873 58.662,62.471 24.234,50.087 7.177,16.356 9.44,-23.837 8.427,-15.836 1.017,-8.001 0,0"
         style="fill:#7e2b1a;fill-opacity:1;fill-rule:evenodd;stroke:none"
         transform="matrix(1.3333333,0,0,-1.3333333,448.99093,656.99613)"
         clip-path="url(#clipPath42)" />
      <path
         id="path43"
         d="M 0,0 C -1.827,19.263 4.965,33.793 22.548,42.401 5.749,30.646 1.477,9.901 8.608,-11.503 6.884,-7.326 1.724,-4.177 0,0"
         style="fill:#7e2b1a;fill-opacity:1;fill-rule:evenodd;stroke:none"
         transform="matrix(1.3333333,0,0,-1.3333333,425.54627,596.3516)"
         clip-path="url(#clipPath44)" />
      <path
         id="path45"
         d="M 0,0 C 3.126,10.818 0.814,19.862 -8.311,26.685 0.025,18.148 0.224,5.822 -6.166,-5.648 -4.727,-3.445 -1.436,-2.201 0,0"
         style="fill:#7e2b1a;fill-opacity:1;fill-rule:evenodd;stroke:none"
         transform="matrix(1.3333333,0,0,-1.3333333,476.7904,602.56773)"
         clip-path="url(#clipPath46)" />
      <path
         id="path47"
         d="m 0,0 c -1.071,-15.171 -13.719,-27.143 -29.159,-27.143 -16.146,0 -29.236,13.087 -29.236,29.235 0,2.14 0.233,4.226 0.672,6.236 -10.842,3.942 -18.583,14.335 -18.583,26.537 0,6.964 2.523,13.335 6.701,18.258 -9.068,5.354 -15.15,15.223 -15.15,26.516 0,16.994 13.776,30.772 30.773,30.772 5.793,0 11.211,-1.602 15.836,-4.385 3.299,9.629 12.432,16.551 23.18,16.551 13.532,0 24.502,-10.97 24.502,-24.502 0,-6.076 -2.212,-11.636 -5.873,-15.917 4.419,-2.789 8.114,-6.627 10.728,-11.163 4.011,4.431 9.809,7.213 16.256,7.213 12.104,0 21.919,-9.814 21.919,-21.92 0,-10.372 -7.203,-19.061 -16.879,-21.337 1.439,-3.282 2.24,-6.908 2.24,-10.722 0,-14.747 -11.951,-26.7 -26.702,-26.7 C 7.217,-2.471 3.414,-1.584 0,0"
         style="fill:#9ac421;fill-opacity:1;fill-rule:evenodd;stroke:none"
         transform="matrix(1.3333333,0,0,-1.3333333,223.81507,588.1172)"
         clip-path="url(#clipPath48)" />
      <path
         id="path49"
         d="m 0,0 c -1.071,-15.171 -13.719,-27.143 -29.159,-27.143 -16.146,0 -29.236,13.087 -29.236,29.235 0,2.14 0.233,4.226 0.672,6.236 -10.842,3.942 -18.583,14.335 -18.583,26.537 0,6.964 2.523,13.335 6.701,18.258 -6.701,-18.258 14.348,-33.907 28.615,-19.938 0.678,-28.278 49.514,-21.912 43.599,3.379 6.984,-9.801 23.097,-4.901 25.01,5.577 16.313,0.757 24.947,14.147 18.526,29.647 3.967,-3.966 6.421,-9.446 6.421,-15.5 0,-10.372 -7.203,-19.061 -16.879,-21.337 1.439,-3.282 2.24,-6.908 2.24,-10.722 0,-14.747 -11.951,-26.7 -26.702,-26.7 C 7.217,-2.471 3.414,-1.584 0,0"
         style="fill:#769a2a;fill-opacity:1;fill-rule:evenodd;stroke:none"
         transform="matrix(1.3333333,0,0,-1.3333333,223.81507,588.1172)"
         clip-path="url(#clipPath50)" />
      <path
         id="path51"
         d="m 0,0 c -8.257,-1.048 -14.951,-7.512 -14.951,-14.438 0,-6.929 6.694,-11.696 14.951,-10.65 8.26,1.047 14.954,7.512 14.954,14.441 C 14.954,-3.721 8.26,1.047 0,0 m -7.436,37.684 c -8.257,-1.047 -14.951,-7.513 -14.951,-14.44 0,-6.929 6.694,-11.694 14.951,-10.649 8.261,1.048 14.955,7.512 14.955,14.44 0,6.927 -6.694,11.695 -14.955,10.649 m -40.38,-13.309 c -10.596,-1.344 -19.181,-9.637 -19.181,-18.524 0,-8.888 8.585,-15.005 19.181,-13.662 10.595,1.343 19.18,9.638 19.18,18.524 0,8.889 -8.585,15.005 -19.18,13.662 m 2.856,-44.22 c -7.206,-0.913 -13.05,-6.556 -13.05,-12.603 0,-6.047 5.844,-10.21 13.05,-9.296 7.211,0.915 13.052,6.558 13.052,12.603 0,6.048 -5.841,10.21 -13.052,9.296 m 81.112,13.52 C 28.946,-7.24 23.103,-12.883 23.103,-18.93 c 0,-6.048 5.843,-10.209 13.049,-9.296 7.211,0.915 13.052,6.558 13.052,12.605 0,6.048 -5.841,10.209 -13.052,9.296"
         style="fill:#adda1a;fill-opacity:1;fill-rule:evenodd;stroke:none"
         transform="matrix(1.3333333,0,0,-1.3333333,211.17387,479.62373)"
         clip-path="url(#clipPath52)" />
      <path
         id="path53"
         d="M 0,0 C 14.848,67.466 4.637,118.089 -33.069,150.232 6.668,122.755 25.176,72.28 23.559,0 Z"
         style="fill:#7e2b1a;fill-opacity:1;fill-rule:evenodd;stroke:none"
         transform="matrix(1.3333333,0,0,-1.3333333,180.13347,707.4544)"
         clip-path="url(#clipPath54)" />
      <path
         id="path55"
         d="M 0,0 C 4.97,28.858 20.657,47.388 49.753,52.984 20.554,42.48 6.085,13.874 8.007,-20.218 7.145,-13.432 0.862,-6.784 0,0"
         style="fill:#7e2b1a;fill-opacity:1;fill-rule:evenodd;stroke:none"
         transform="matrix(1.3333333,0,0,-1.3333333,196.78187,609.23693)"
         clip-path="url(#clipPath56)" />
      <path
         id="path57"
         d="M 0,0 C -1.549,16.338 4.212,28.662 19.126,35.962 4.876,25.992 1.255,8.398 7.3,-9.756 5.841,-6.213 1.462,-3.543 0,0"
         style="fill:#7e2b1a;fill-opacity:1;fill-rule:evenodd;stroke:none"
         transform="matrix(1.3333333,0,0,-1.3333333,176.89653,557.80213)"
         clip-path="url(#clipPath58)" />
      <path
         id="path59"
         d="M 0,0 C 2.655,9.175 0.689,16.846 -7.047,22.633 0.023,15.391 0.192,4.937 -5.229,-4.791 -4.008,-2.922 -1.218,-1.868 0,0"
         style="fill:#7e2b1a;fill-opacity:1;fill-rule:evenodd;stroke:none"
         transform="matrix(1.3333333,0,0,-1.3333333,220.35613,563.07293)"
         clip-path="url(#clipPath60)" />
      <path
         id="path61"
         d="m 0,0 c 3.033,0 5.89,-0.736 8.412,-2.04 5.318,8.126 14.503,13.496 24.939,13.496 8.544,0 16.244,-3.595 21.674,-9.357 3.746,2.379 8.188,3.756 12.952,3.756 13.359,0 24.188,-10.828 24.188,-24.185 0,-13.358 -10.829,-24.187 -24.188,-24.187 -4.764,0 -9.206,1.377 -12.952,3.756 -5.43,-5.76 -13.13,-9.357 -21.674,-9.357 -10.436,0 -19.621,5.369 -24.939,13.496 -2.522,-1.303 -5.379,-2.04 -8.412,-2.04 -10.124,0 -18.331,8.207 -18.331,18.332 C -18.331,-8.207 -10.124,0 0,0"
         style="fill:#ffffff;fill-opacity:1;fill-rule:evenodd;stroke:none"
         transform="matrix(1.3333333,0,0,-1.3333333,93.8112,64.458933)"
         clip-path="url(#clipPath62)" />
      <path
         id="path63"
         d="M 0,0 43.504,-8.605 87.008,-17.211 43.504,-25.816 0,-34.422 l -43.502,8.606 -43.504,8.605 43.504,8.606 z"
         style="fill:#ffffff;fill-opacity:1;fill-rule:evenodd;stroke:none"
         transform="matrix(1.3333333,0,0,-1.3333333,143.03253,65.953067)"
         clip-path="url(#clipPath64)" />
      <path
         id="path65"
         d="m 0,0 c 5.459,0 10.383,-2.284 13.871,-5.95 3.971,5.196 10.234,8.546 17.279,8.546 6.413,0 12.173,-2.775 16.152,-7.191 4.87,7.823 13.544,13.032 23.436,13.032 8.952,0 16.908,-4.268 21.947,-10.877 0.778,0.11 1.577,0.168 2.388,0.168 9.32,0 16.873,-7.554 16.873,-16.872 0,-9.319 -7.553,-16.873 -16.873,-16.873 -0.811,0 -1.61,0.058 -2.388,0.168 -5.039,-6.609 -12.995,-10.877 -21.947,-10.877 -9.892,0 -18.566,5.209 -23.436,13.032 -3.979,-4.415 -9.739,-7.191 -16.152,-7.191 -7.045,0 -13.308,3.351 -17.279,8.546 -3.488,-3.666 -8.412,-5.95 -13.871,-5.95 -10.573,0 -19.146,8.57 -19.146,19.145 C -19.146,-8.57 -10.573,0 0,0"
         style="fill:#ffffff;fill-opacity:1;fill-rule:evenodd;stroke:none"
         transform="matrix(1.3333333,0,0,-1.3333333,421.64653,137.9408)"
         clip-path="url(#clipPath66)" />
      <path
         id="path67"
         d="M 0,0 49.161,-6.328 98.322,-12.656 49.161,-18.983 0,-25.31 l -49.158,6.327 -49.164,6.327 49.164,6.328 z"
         style="fill:#ffffff;fill-opacity:1;fill-rule:evenodd;stroke:none"
         transform="matrix(1.3333333,0,0,-1.3333333,483.51307,146.5924)"
         clip-path="url(#clipPath68)" />
      <path
         id="path69"
         d="m 0,0 c 7.907,0 15.023,-3.389 19.973,-8.794 4.629,4.552 10.975,7.362 17.983,7.362 7.562,0 14.359,-3.273 19.054,-8.48 1.163,0.244 2.37,0.374 3.609,0.374 6.786,0 12.672,-3.858 15.589,-9.497 3.057,6.691 9.806,11.343 17.64,11.343 10.708,0 19.388,-8.68 19.388,-19.385 0,-10.706 -8.68,-19.386 -19.388,-19.386 -7.834,0 -14.583,4.652 -17.64,11.343 -2.917,-5.64 -8.803,-9.497 -15.589,-9.497 -1.239,0 -2.446,0.129 -3.609,0.373 -4.695,-5.205 -11.492,-8.479 -19.054,-8.479 -7.008,0 -13.354,2.809 -17.983,7.362 -4.95,-5.406 -12.066,-8.795 -19.973,-8.795 -10.156,0 -19.005,5.593 -23.637,13.864 -0.224,-0.011 -0.448,-0.017 -0.672,-0.017 -7.309,0 -13.231,5.923 -13.231,13.232 0,7.307 5.922,13.23 13.231,13.23 0.224,0 0.448,-0.005 0.672,-0.017 C -19.005,-5.592 -10.156,0 0,0"
         style="fill:#ffffff;fill-opacity:1;fill-rule:evenodd;stroke:none"
         transform="matrix(1.3333333,0,0,-1.3333333,236.028,201.96227)"
         clip-path="url(#clipPath70)" />
      <path
         id="path71"
         d="m 0,0 46.618,-6.002 46.619,-5.999 -46.619,-6 -46.618,-6 -46.618,6 -46.619,6 46.619,5.999 z"
         style="fill:#ffffff;fill-opacity:1;fill-rule:evenodd;stroke:none"
         transform="matrix(1.3333333,0,0,-1.3333333,286.49027,222.06387)"
         clip-path="url(#clipPath72)" />
      <path
         id="path73"
         d="m 0,0 c 1.373,0 2.663,-0.333 3.804,-0.92 2.401,3.671 6.55,6.097 11.267,6.097 3.863,0 7.341,-1.624 9.795,-4.227 1.693,1.074 3.7,1.697 5.853,1.697 6.036,0 10.928,-4.894 10.928,-10.93 0,-6.036 -4.892,-10.929 -10.928,-10.929 -2.153,0 -4.16,0.624 -5.853,1.698 -2.454,-2.603 -5.932,-4.229 -9.795,-4.229 -4.717,0 -8.866,2.428 -11.267,6.099 -1.141,-0.588 -2.431,-0.922 -3.804,-0.922 -4.574,0 -8.28,3.709 -8.28,8.283 C -8.28,-3.709 -4.574,0 0,0"
         style="fill:#ffffff;fill-opacity:1;fill-rule:evenodd;stroke:none"
         transform="matrix(1.3333333,0,0,-1.3333333,575.51307,279.74933)"
         clip-path="url(#clipPath74)" />
      <path
         id="path75"
         d="M 0,0 19.657,-3.889 39.314,-7.777 19.657,-11.666 0,-15.555 l -19.657,3.889 -19.658,3.889 19.658,3.888 z"
         style="fill:#ffffff;fill-opacity:1;fill-rule:evenodd;stroke:none"
         transform="matrix(1.3333333,0,0,-1.3333333,597.75787,280.4232)"
         clip-path="url(#clipPath76)" />
      <path
         id="path77"
         d="m 0,0 c -5.81,0 -11.032,-2.489 -14.667,-6.457 -3.399,3.343 -8.062,5.406 -13.208,5.406 -5.553,0 -10.544,-2.404 -13.988,-6.228 -0.86,0.18 -1.745,0.273 -2.656,0.273 -4.981,0 -9.305,-2.829 -11.446,-6.972 -2.246,4.914 -7.202,8.328 -12.957,8.328 -7.86,0 -14.236,-6.372 -14.236,-14.234 0,-7.863 6.376,-14.236 14.236,-14.236 5.755,0 10.711,3.414 12.957,8.328 2.141,-4.141 6.465,-6.972 11.446,-6.972 0.911,0 1.796,0.095 2.656,0.273 3.444,-3.823 8.435,-6.228 13.988,-6.228 5.146,0 9.809,2.065 13.208,5.408 3.635,-3.97 8.857,-6.459 14.667,-6.459 7.455,0 13.954,4.107 17.359,10.182 0.16,-0.009 0.327,-0.013 0.491,-0.013 5.367,0 9.717,4.35 9.717,9.717 0,5.365 -4.35,9.715 -9.717,9.715 -0.164,0 -0.331,-0.003 -0.491,-0.012 C 13.954,-4.107 7.455,0 0,0"
         style="fill:#ffffff;fill-opacity:1;fill-rule:evenodd;stroke:none"
         transform="matrix(1.3333333,0,0,-1.3333333,743.62507,65.901733)"
         clip-path="url(#clipPath78)" />
      <path
         id="path79"
         d="M 0,0 -34.235,-4.407 -68.468,-8.813 -34.235,-13.22 0,-17.626 l 34.232,4.406 34.236,4.407 -34.236,4.406 z"
         style="fill:#ffffff;fill-opacity:1;fill-rule:evenodd;stroke:none"
         transform="matrix(1.3333333,0,0,-1.3333333,706.5664,80.663467)"
         clip-path="url(#clipPath80)" />
    </g>
  </g>
</svg>
